<svg id="svg" version="1.1" width="400" height="400" viewBox="0 0 400 400" xmlns="http://www.w3.org/2000/svg" xmlns:xlink="http://www.w3.org/1999/xlink"><g id="svgg"><path id="path0" d="M159.905 48.283 C 160.402 48.379,161.122 48.375,161.505 48.275 C 161.887 48.175,161.480 48.096,160.600 48.101 C 159.720 48.105,159.407 48.187,159.905 48.283 M124.600 52.800 C 123.581 53.238,124.632 53.238,126.000 52.800 C 126.804 52.543,126.843 52.477,126.200 52.468 C 125.760 52.462,125.040 52.611,124.600 52.800 M117.400 54.677 C 114.760 55.447,112.287 56.240,111.905 56.439 C 110.984 56.918,110.000 56.898,110.000 56.400 C 110.000 56.180,109.830 56.000,109.623 56.000 C 109.416 56.000,109.315 56.360,109.400 56.800 C 109.570 57.681,108.605 57.935,108.260 57.100 C 108.135 56.797,107.946 56.955,107.780 57.500 C 107.585 58.143,107.177 58.414,106.353 58.450 C 105.719 58.477,105.065 58.525,104.900 58.555 C 104.300 58.664,101.795 59.761,101.600 60.000 C 101.490 60.135,100.815 60.482,100.100 60.771 C 99.385 61.060,98.800 61.455,98.800 61.649 C 98.800 61.842,98.440 62.000,98.000 62.000 C 97.560 62.000,97.200 62.180,97.200 62.400 C 97.200 62.620,96.917 62.800,96.571 62.800 C 96.226 62.800,95.677 63.066,95.352 63.391 C 95.027 63.716,94.456 64.153,94.084 64.361 C 93.711 64.570,93.550 64.883,93.725 65.058 C 93.900 65.234,94.204 65.117,94.400 64.800 C 94.596 64.483,94.874 64.340,95.017 64.483 C 95.160 64.626,95.934 64.368,96.738 63.910 C 102.258 60.764,113.231 56.313,120.200 54.394 C 121.960 53.910,123.475 53.443,123.567 53.357 C 124.029 52.922,121.718 53.417,117.400 54.677 M80.950 74.124 C 80.482 74.606,79.132 75.925,77.950 77.055 C 74.797 80.069,71.600 83.573,71.600 84.015 C 71.600 84.226,70.880 85.141,70.000 86.048 C 69.120 86.955,68.400 87.905,68.400 88.160 C 68.400 88.415,68.040 88.883,67.600 89.200 C 67.160 89.517,66.800 90.057,66.800 90.400 C 66.800 90.743,66.440 91.283,66.000 91.600 C 65.560 91.917,65.200 92.324,65.200 92.505 C 65.200 92.686,64.840 93.220,64.400 93.692 C 63.960 94.164,63.600 94.787,63.600 95.075 C 63.600 95.364,63.420 95.600,63.200 95.600 C 62.980 95.600,62.800 95.960,62.800 96.400 C 62.800 96.840,62.642 97.200,62.448 97.200 C 61.999 97.200,58.400 104.423,58.400 105.324 C 58.400 105.696,58.220 106.000,58.000 106.000 C 57.780 106.000,57.600 106.360,57.600 106.800 C 57.600 107.240,57.420 107.600,57.200 107.600 C 56.980 107.600,56.800 107.960,56.800 108.400 C 56.800 108.840,56.620 109.200,56.400 109.200 C 56.180 109.200,56.000 109.549,56.000 109.976 C 56.000 110.403,55.820 110.864,55.600 111.000 C 55.380 111.136,55.200 111.597,55.200 112.024 C 55.200 112.451,55.020 112.800,54.800 112.800 C 54.580 112.800,54.400 113.160,54.400 113.600 C 54.400 114.040,54.220 114.400,54.000 114.400 C 53.780 114.400,53.600 114.940,53.600 115.600 C 53.600 116.260,53.420 116.800,53.200 116.800 C 52.980 116.800,52.800 117.340,52.800 118.000 C 52.800 118.660,52.620 119.200,52.400 119.200 C 52.180 119.200,52.000 119.560,52.000 120.000 C 52.000 120.440,51.820 120.800,51.600 120.800 C 51.380 120.800,51.200 121.340,51.200 122.000 C 51.200 122.660,51.020 123.200,50.800 123.200 C 50.580 123.200,50.400 123.740,50.400 124.400 C 50.400 125.060,50.220 125.600,50.000 125.600 C 49.780 125.600,49.600 126.230,49.600 127.000 C 49.600 127.770,49.420 128.400,49.200 128.400 C 48.980 128.400,48.800 128.929,48.800 129.576 C 48.800 130.223,48.620 130.864,48.400 131.000 C 48.180 131.136,48.000 131.867,48.000 132.624 C 48.000 133.381,47.820 134.000,47.600 134.000 C 47.380 134.000,47.200 134.720,47.200 135.600 C 47.200 136.480,47.020 137.200,46.800 137.200 C 46.580 137.200,46.400 137.909,46.400 138.776 C 46.400 139.643,46.220 140.464,46.000 140.600 C 45.780 140.736,45.600 141.521,45.600 142.344 C 45.600 143.167,45.437 144.011,45.239 144.220 C 45.040 144.429,44.777 145.410,44.654 146.400 C 44.530 147.390,44.235 149.370,43.997 150.800 C 43.440 154.150,42.928 158.296,42.392 163.800 C 41.836 169.514,41.831 199.196,42.385 205.400 C 43.170 214.185,43.402 216.197,43.679 216.624 C 43.830 216.858,43.997 217.992,44.049 219.145 C 44.102 220.299,44.292 221.333,44.472 221.445 C 44.653 221.556,44.800 222.526,44.800 223.600 C 44.800 224.674,44.980 225.664,45.200 225.800 C 45.420 225.936,45.600 226.836,45.600 227.800 C 45.600 228.764,45.780 229.664,46.000 229.800 C 46.220 229.936,46.400 230.746,46.400 231.600 C 46.400 232.454,46.580 233.264,46.800 233.400 C 47.020 233.536,47.200 234.346,47.200 235.200 C 47.200 236.054,47.380 236.864,47.600 237.000 C 47.820 237.136,48.000 237.867,48.000 238.624 C 48.000 239.381,48.180 240.000,48.400 240.000 C 48.620 240.000,48.800 240.540,48.800 241.200 C 48.800 241.860,48.943 242.400,49.118 242.400 C 49.293 242.400,49.481 243.075,49.536 243.900 C 49.590 244.725,49.807 245.460,50.018 245.533 C 50.228 245.607,50.400 246.104,50.400 246.639 C 50.400 247.173,50.558 247.923,50.751 248.305 C 51.346 249.484,52.000 251.811,52.000 252.752 C 52.000 253.247,52.179 253.537,52.400 253.400 C 52.627 253.260,52.800 253.598,52.800 254.182 C 52.800 254.748,52.980 255.568,53.200 256.005 C 53.420 256.442,53.780 257.158,54.000 257.595 C 54.220 258.032,54.400 258.662,54.400 258.995 C 54.400 259.328,54.580 259.600,54.800 259.600 C 55.020 259.600,55.200 260.140,55.200 260.800 C 55.200 261.460,55.380 262.000,55.600 262.000 C 55.820 262.000,56.000 262.439,56.000 262.976 C 56.000 263.513,56.180 264.064,56.400 264.200 C 56.620 264.336,56.800 264.797,56.800 265.224 C 56.800 265.651,56.980 266.000,57.200 266.000 C 57.420 266.000,57.600 266.540,57.600 267.200 C 57.600 267.860,57.780 268.400,58.000 268.400 C 58.220 268.400,58.400 268.682,58.400 269.026 C 58.400 269.370,58.850 270.635,59.400 271.837 C 59.950 273.040,60.400 274.288,60.400 274.612 C 60.400 274.935,60.580 275.200,60.800 275.200 C 61.020 275.200,61.200 275.560,61.200 276.000 C 61.200 276.440,61.335 276.801,61.500 276.803 C 61.859 276.807,62.800 278.744,62.800 279.480 C 62.800 279.766,62.980 280.000,63.200 280.000 C 63.420 280.000,63.600 280.360,63.600 280.800 C 63.600 281.240,63.780 281.600,64.000 281.600 C 64.220 281.600,64.400 281.960,64.400 282.400 C 64.400 282.840,64.535 283.201,64.700 283.203 C 65.059 283.207,66.000 285.144,66.000 285.880 C 66.000 286.166,66.180 286.400,66.400 286.400 C 66.620 286.400,66.800 286.678,66.800 287.017 C 66.800 287.356,67.160 288.020,67.600 288.492 C 68.040 288.964,68.400 289.587,68.400 289.875 C 68.400 290.164,68.580 290.400,68.800 290.400 C 69.020 290.400,69.200 290.670,69.200 291.000 C 69.200 291.330,69.380 291.600,69.600 291.600 C 69.820 291.600,70.000 291.960,70.000 292.400 C 70.000 292.840,70.180 293.200,70.400 293.200 C 70.620 293.200,70.800 293.520,70.800 293.912 C 70.800 294.303,71.160 294.883,71.600 295.200 C 72.040 295.517,72.400 296.014,72.400 296.305 C 72.400 296.596,72.760 297.220,73.200 297.692 C 73.640 298.164,74.000 298.787,74.000 299.075 C 74.000 299.364,74.180 299.600,74.400 299.600 C 74.620 299.600,74.800 299.960,74.800 300.400 C 74.800 300.840,74.958 301.200,75.151 301.200 C 75.345 301.200,75.712 301.705,75.967 302.321 C 76.223 302.938,76.875 303.920,77.416 304.504 C 77.957 305.087,78.400 305.751,78.400 305.979 C 78.400 306.207,78.760 306.618,79.200 306.893 C 79.640 307.168,80.000 307.669,80.000 308.008 C 80.000 308.346,80.360 308.883,80.800 309.200 C 81.240 309.517,81.600 309.969,81.600 310.204 C 81.600 310.440,82.320 311.428,83.200 312.400 C 84.080 313.372,84.800 314.310,84.800 314.484 C 84.800 314.657,85.520 315.541,86.400 316.448 C 87.280 317.355,88.000 318.259,88.000 318.457 C 88.000 318.655,88.967 319.827,90.148 321.061 C 92.889 323.924,93.559 324.701,93.428 324.867 C 93.280 325.052,107.367 338.995,107.542 338.837 C 107.620 338.767,108.391 339.360,109.255 340.155 C 110.120 340.950,111.019 341.600,111.253 341.600 C 111.487 341.600,112.183 342.140,112.800 342.800 C 113.417 343.460,114.169 344.000,114.472 344.000 C 114.775 344.000,115.283 344.360,115.600 344.800 C 115.917 345.240,116.457 345.600,116.800 345.600 C 117.143 345.600,117.683 345.960,118.000 346.400 C 118.317 346.840,118.897 347.200,119.288 347.200 C 119.680 347.200,120.000 347.380,120.000 347.600 C 120.000 347.820,120.360 348.000,120.800 348.000 C 121.240 348.000,121.600 348.180,121.600 348.400 C 121.600 348.620,121.960 348.800,122.400 348.800 C 122.840 348.800,123.201 348.935,123.201 349.100 C 123.202 349.265,124.192 349.850,125.400 350.400 C 126.608 350.950,127.598 351.535,127.599 351.700 C 127.599 351.865,127.872 352.000,128.205 352.000 C 128.538 352.000,129.123 352.159,129.505 352.353 C 130.440 352.829,131.907 353.418,133.600 354.000 C 134.370 354.264,135.360 354.629,135.800 354.810 C 136.240 354.991,137.050 355.231,137.600 355.342 C 138.150 355.453,139.320 355.750,140.200 356.002 C 142.148 356.560,144.729 357.096,147.400 357.499 C 149.961 357.884,172.358 357.884,175.000 357.498 C 176.100 357.337,177.810 357.104,178.800 356.980 C 179.790 356.856,180.960 356.596,181.400 356.402 C 181.840 356.208,182.875 355.948,183.700 355.825 C 187.057 355.322,188.018 355.095,188.227 354.756 C 188.348 354.560,188.977 354.400,189.624 354.400 C 190.271 354.400,190.800 354.220,190.800 354.000 C 190.800 353.780,191.340 353.600,192.000 353.600 C 192.660 353.600,193.200 353.420,193.200 353.200 C 193.200 352.980,193.740 352.800,194.400 352.800 C 195.060 352.800,195.600 352.620,195.600 352.400 C 195.600 352.180,196.140 352.000,196.800 352.000 C 197.460 352.000,198.000 351.820,198.000 351.600 C 198.000 351.380,198.540 351.200,199.200 351.200 C 199.860 351.200,200.400 351.020,200.400 350.800 C 200.400 350.580,200.839 350.400,201.376 350.400 C 201.913 350.400,202.464 350.220,202.600 350.000 C 202.736 349.780,203.197 349.600,203.624 349.600 C 204.051 349.600,204.400 349.420,204.400 349.200 C 204.400 348.980,204.850 348.800,205.400 348.800 C 205.950 348.800,206.400 348.620,206.400 348.400 C 206.400 348.180,206.760 348.000,207.200 348.000 C 207.640 348.000,208.000 347.820,208.000 347.600 C 208.000 347.380,208.360 347.200,208.800 347.200 C 209.240 347.200,209.600 347.020,209.600 346.800 C 209.600 346.580,209.960 346.400,210.400 346.400 C 210.840 346.400,211.200 346.220,211.200 346.000 C 211.200 345.780,211.639 345.600,212.176 345.600 C 212.713 345.600,213.264 345.420,213.400 345.200 C 213.536 344.980,213.997 344.800,214.424 344.800 C 214.851 344.800,215.200 344.620,215.200 344.400 C 215.200 344.180,215.560 344.000,216.000 344.000 C 216.440 344.000,216.800 343.820,216.800 343.600 C 216.800 343.380,217.145 343.200,217.567 343.200 C 217.988 343.200,218.393 343.058,218.467 342.884 C 218.540 342.711,220.040 341.857,221.800 340.988 C 223.560 340.119,225.060 339.271,225.133 339.104 C 225.207 338.937,225.572 338.800,225.945 338.800 C 226.318 338.800,226.883 338.440,227.200 338.000 C 227.517 337.560,228.097 337.200,228.488 337.200 C 228.880 337.200,229.200 337.020,229.200 336.800 C 229.200 336.580,229.560 336.400,230.000 336.400 C 230.440 336.400,230.800 336.242,230.800 336.049 C 230.800 335.855,231.340 335.473,232.000 335.200 C 232.660 334.927,233.200 334.545,233.200 334.351 C 233.200 334.158,233.520 334.000,233.912 334.000 C 234.303 334.000,234.883 333.640,235.200 333.200 C 235.517 332.760,236.057 332.400,236.400 332.400 C 236.743 332.400,237.283 332.040,237.600 331.600 C 237.917 331.160,238.457 330.800,238.800 330.800 C 239.143 330.800,239.683 330.440,240.000 330.000 C 240.317 329.560,240.767 329.200,241.000 329.200 C 241.233 329.200,241.683 328.840,242.000 328.400 C 242.317 327.960,242.857 327.600,243.200 327.600 C 243.543 327.600,244.083 327.240,244.400 326.800 C 244.717 326.360,245.297 326.000,245.688 326.000 C 246.080 326.000,246.400 325.842,246.400 325.649 C 246.400 325.455,246.963 325.064,247.652 324.779 C 248.340 324.493,249.322 323.842,249.834 323.330 C 250.345 322.819,250.925 322.400,251.122 322.400 C 251.320 322.400,252.046 321.860,252.737 321.200 C 253.428 320.540,254.148 320.000,254.337 320.000 C 254.526 320.000,255.246 319.460,255.937 318.800 C 256.628 318.140,257.298 317.600,257.428 317.600 C 257.557 317.600,258.354 316.880,259.200 316.000 C 260.046 315.120,260.946 314.400,261.200 314.400 C 261.454 314.400,262.354 313.680,263.200 312.800 C 264.046 311.920,264.903 311.200,265.105 311.200 C 265.307 311.200,266.294 310.435,267.297 309.500 C 268.301 308.565,269.634 307.448,270.261 307.018 C 270.887 306.588,272.708 304.923,274.306 303.318 C 275.905 301.713,277.392 300.400,277.612 300.400 C 278.150 300.400,299.600 278.976,299.600 278.438 C 299.600 278.204,300.875 276.795,302.433 275.306 C 303.991 273.818,305.806 271.827,306.465 270.881 C 307.125 269.936,308.280 268.547,309.032 267.794 C 309.784 267.042,310.400 266.223,310.400 265.974 C 310.400 265.725,310.974 264.985,311.675 264.330 C 312.724 263.350,312.848 263.068,312.375 262.735 C 311.926 262.419,311.983 262.370,312.637 262.511 C 313.164 262.625,313.646 262.417,313.937 261.952 C 314.612 260.872,314.503 260.519,313.775 261.424 C 313.329 261.977,313.090 262.056,312.941 261.698 C 312.826 261.421,312.563 261.300,312.356 261.427 C 312.149 261.555,312.025 261.511,312.079 261.330 C 312.452 260.086,310.552 255.600,309.651 255.600 C 308.056 255.600,305.531 254.688,305.289 254.024 C 305.163 253.681,304.822 253.256,304.530 253.080 C 304.239 252.904,304.000 252.576,304.000 252.352 C 304.000 252.127,303.730 251.673,303.400 251.343 C 303.070 251.013,302.800 250.396,302.800 249.971 C 302.800 249.547,302.633 249.200,302.429 249.200 C 302.225 249.200,302.000 248.917,301.929 248.571 C 301.793 247.907,297.798 246.349,297.008 246.652 C 296.725 246.761,296.362 245.875,296.049 244.314 C 295.468 241.410,294.790 240.276,293.851 240.636 C 293.493 240.773,293.200 240.720,293.200 240.517 C 293.200 240.089,290.646 238.800,289.799 238.800 C 289.453 238.800,289.317 238.562,289.455 238.200 C 289.582 237.870,289.477 237.600,289.222 237.600 C 288.967 237.600,288.570 237.060,288.340 236.400 C 288.110 235.740,287.757 235.200,287.556 235.200 C 287.354 235.200,286.793 234.383,286.307 233.384 C 285.552 231.829,285.182 231.506,283.740 231.143 C 282.813 230.910,281.958 230.467,281.840 230.159 C 281.722 229.852,281.259 229.600,280.813 229.600 C 280.218 229.600,280.000 229.338,280.000 228.624 C 280.000 228.087,279.844 227.551,279.653 227.432 C 279.461 227.314,279.189 226.494,279.048 225.609 C 278.826 224.220,278.000 223.267,278.000 224.400 C 278.000 224.620,277.640 224.800,277.200 224.800 C 276.760 224.800,276.400 224.544,276.400 224.231 C 276.400 223.918,275.770 223.454,275.000 223.200 C 274.230 222.946,273.600 222.605,273.600 222.442 C 273.600 222.279,272.970 221.438,272.200 220.573 C 271.430 219.708,270.800 218.657,270.800 218.238 C 270.800 217.513,270.763 217.510,270.035 218.168 C 269.614 218.549,268.981 218.903,268.628 218.955 C 268.275 219.007,266.348 221.018,264.347 223.425 C 248.860 242.048,232.005 257.696,211.552 272.440 C 191.804 286.675,169.318 295.773,150.388 297.186 C 123.682 299.180,103.165 287.168,81.292 256.733 C 79.921 254.825,78.800 253.153,78.800 253.016 C 78.800 252.878,78.616 252.549,78.392 252.283 C 76.772 250.365,70.732 239.696,68.381 234.600 C 65.843 229.097,65.267 227.799,64.375 225.568 C 58.306 210.392,55.083 197.244,52.717 178.000 C 51.942 171.700,52.066 149.733,52.917 142.600 C 56.297 114.250,66.188 90.223,80.295 76.091 C 82.232 74.151,82.854 73.163,82.100 73.224 C 81.935 73.238,81.417 73.643,80.950 74.124 " stroke="none" fill="#046ca6" fill-rule="evenodd"></path><path id="path1" d="M148.400 49.003 C 129.219 50.924,109.645 56.565,96.800 63.873 C 96.030 64.312,95.175 64.594,94.900 64.502 C 94.625 64.409,94.400 64.528,94.400 64.767 C 94.400 65.005,93.984 65.200,93.475 65.200 C 92.967 65.200,92.164 65.560,91.692 66.000 C 91.220 66.440,90.596 66.800,90.305 66.800 C 90.014 66.800,89.517 67.160,89.200 67.600 C 88.883 68.040,88.415 68.400,88.160 68.400 C 87.905 68.400,86.955 69.120,86.048 70.000 C 85.141 70.880,84.150 71.600,83.845 71.600 C 83.540 71.600,82.975 72.267,82.588 73.082 C 82.201 73.898,81.050 75.383,80.030 76.382 C 66.412 89.735,56.266 114.512,52.917 142.600 C 52.066 149.733,51.942 171.700,52.717 178.000 C 55.083 197.244,58.306 210.392,64.375 225.568 C 65.267 227.799,65.843 229.097,68.381 234.600 C 70.732 239.696,76.772 250.365,78.392 252.283 C 78.616 252.549,78.800 252.878,78.800 253.016 C 78.800 253.861,86.923 264.412,92.065 270.245 C 98.582 277.638,107.908 285.942,112.000 287.996 C 113.454 288.726,112.687 288.080,108.200 284.794 C 102.504 280.624,94.996 273.367,89.995 267.200 C 89.014 265.990,88.108 264.910,87.983 264.800 C 87.606 264.470,83.095 258.386,81.161 255.600 C 78.401 251.622,74.690 245.556,73.332 242.800 C 72.952 242.030,72.534 241.310,72.403 241.200 C 72.016 240.876,68.959 234.431,66.744 229.267 C 65.230 225.739,66.065 226.349,68.019 230.199 C 69.130 232.387,70.183 234.272,70.359 234.388 C 70.536 234.505,70.783 234.870,70.908 235.200 C 71.099 235.700,71.142 235.690,71.168 235.143 C 71.216 234.157,72.400 233.839,72.400 234.813 C 72.400 235.246,72.580 235.600,72.800 235.600 C 73.020 235.600,73.200 235.949,73.200 236.376 C 73.200 236.803,73.380 237.264,73.600 237.400 C 73.820 237.536,74.000 237.287,74.000 236.847 C 74.000 236.407,73.820 235.936,73.600 235.800 C 73.380 235.664,73.200 235.113,73.200 234.576 C 73.200 234.039,73.020 233.600,72.800 233.600 C 72.580 233.600,72.400 233.320,72.400 232.978 C 72.400 232.637,71.758 230.438,70.974 228.094 C 57.360 187.403,63.820 137.956,85.706 115.333 C 103.754 96.677,141.058 87.663,176.421 93.413 C 180.093 94.010,182.753 94.487,184.300 94.827 C 189.252 95.914,190.028 96.099,194.400 97.228 C 196.899 97.873,204.977 100.440,205.847 100.865 C 206.314 101.093,207.034 101.199,207.447 101.102 C 208.073 100.956,208.004 100.846,207.040 100.450 L 205.881 99.974 222.304 83.522 C 234.455 71.349,238.606 66.956,238.263 66.635 C 238.008 66.396,236.775 65.672,235.522 65.027 C 233.437 63.954,232.668 62.945,234.313 63.443 C 237.939 64.540,227.436 60.106,221.200 57.907 C 199.036 50.090,171.357 46.705,148.400 49.003 " stroke="none" fill="#800f84" fill-rule="evenodd"></path><path id="path2" d="M199.433 43.475 C 199.923 46.157,200.248 46.628,201.955 47.139 C 202.853 47.408,203.765 47.961,203.983 48.368 C 204.201 48.775,204.814 49.217,205.345 49.351 C 205.932 49.498,206.410 49.984,206.562 50.589 C 206.788 51.492,208.062 52.312,210.800 53.317 C 211.202 53.464,211.112 53.547,210.526 53.568 C 210.045 53.586,209.235 53.445,208.726 53.255 C 208.217 53.065,206.900 52.799,205.800 52.665 C 204.614 52.521,205.834 52.970,208.800 53.770 C 233.202 60.350,254.802 71.556,272.287 86.705 C 293.192 104.818,300.973 119.796,300.993 141.959 C 300.999 149.479,301.477 151.716,301.600 144.800 C 301.690 139.711,302.222 138.542,302.468 142.891 C 302.604 145.310,302.896 147.033,303.238 147.446 C 303.540 147.810,303.808 148.309,303.833 148.554 C 303.858 148.799,303.906 149.293,303.939 149.651 C 304.018 150.500,305.619 151.137,308.600 151.506 L 311.000 151.803 311.434 154.697 C 311.885 157.708,312.750 159.200,314.046 159.200 C 314.444 159.200,315.091 159.534,315.484 159.942 C 315.878 160.351,316.693 161.000,317.297 161.386 C 317.900 161.772,318.307 162.227,318.201 162.398 C 318.095 162.569,318.287 162.940,318.628 163.223 C 318.968 163.505,319.496 164.335,319.802 165.067 C 320.463 166.648,321.389 167.120,324.599 167.511 L 326.997 167.803 327.295 170.201 C 327.460 171.521,327.714 172.870,327.860 173.200 C 328.006 173.530,328.090 174.025,328.046 174.300 C 328.001 174.575,328.239 174.800,328.574 174.800 C 329.694 174.800,332.400 176.080,332.400 176.610 C 332.400 176.898,332.895 177.314,333.500 177.535 C 334.105 177.756,334.330 177.952,334.000 177.970 C 333.608 177.992,333.802 178.326,334.559 178.931 C 335.243 179.478,335.766 180.321,335.838 180.988 C 336.005 182.560,336.314 182.765,339.232 183.248 C 343.403 183.937,343.644 184.005,343.390 184.417 C 343.256 184.633,343.699 185.978,344.373 187.406 C 345.048 188.834,345.600 190.272,345.600 190.601 C 345.600 190.930,345.825 191.221,346.100 191.246 C 346.375 191.272,346.780 191.334,347.000 191.385 C 347.220 191.436,347.906 191.506,348.524 191.539 C 349.142 191.573,349.545 191.765,349.420 191.968 C 349.295 192.170,349.464 192.607,349.796 192.939 C 350.128 193.271,350.400 193.905,350.400 194.348 C 350.400 194.791,350.583 195.266,350.807 195.404 C 351.030 195.542,351.121 195.804,351.009 195.986 C 350.896 196.167,351.074 196.419,351.402 196.546 C 351.765 196.685,352.000 196.544,352.000 196.187 C 352.000 195.864,352.180 195.600,352.400 195.600 C 352.620 195.600,352.800 195.060,352.800 194.400 C 352.800 193.740,352.980 193.200,353.200 193.200 C 353.420 193.200,353.600 192.671,353.600 192.024 C 353.600 191.377,353.780 190.736,354.000 190.600 C 354.220 190.464,354.400 189.834,354.400 189.200 C 354.400 188.566,354.580 187.936,354.800 187.800 C 355.020 187.664,355.200 186.944,355.200 186.200 C 355.200 185.456,355.361 184.748,355.558 184.626 C 355.755 184.505,356.015 183.729,356.137 182.903 C 356.259 182.076,356.542 180.410,356.766 179.200 C 357.829 173.452,358.058 169.339,357.880 159.204 C 357.777 153.372,357.583 148.060,357.449 147.400 C 357.314 146.740,357.095 145.390,356.961 144.400 C 356.827 143.410,356.556 142.429,356.359 142.220 C 356.162 142.011,356.000 141.484,356.000 141.048 C 356.000 140.242,355.834 139.649,354.409 135.373 C 353.964 134.039,353.600 132.644,353.600 132.273 C 353.600 131.903,353.420 131.600,353.200 131.600 C 352.980 131.600,352.800 131.150,352.800 130.600 C 352.800 130.050,352.620 129.600,352.400 129.600 C 352.180 129.600,352.000 129.347,352.000 129.038 C 352.000 128.372,350.332 125.059,349.900 124.867 C 349.735 124.793,349.600 124.388,349.600 123.967 C 349.600 123.545,349.420 123.200,349.200 123.200 C 348.980 123.200,348.800 122.840,348.800 122.400 C 348.800 121.960,348.620 121.600,348.400 121.600 C 348.180 121.600,348.000 121.280,348.000 120.888 C 348.000 120.497,347.640 119.917,347.200 119.600 C 346.760 119.283,346.400 118.703,346.400 118.312 C 346.400 117.920,346.250 117.600,346.068 117.600 C 345.885 117.600,345.481 117.105,345.170 116.500 C 344.860 115.895,344.333 115.130,344.000 114.800 C 343.667 114.470,343.140 113.705,342.830 113.100 C 342.519 112.495,342.115 112.000,341.932 112.000 C 341.750 112.000,341.600 111.762,341.600 111.472 C 341.600 111.181,340.790 110.098,339.800 109.065 C 338.810 108.031,338.000 107.016,338.000 106.808 C 338.000 106.601,335.255 103.715,331.900 100.395 C 324.189 92.765,324.225 92.800,323.899 92.800 C 323.749 92.800,322.505 91.720,321.135 90.400 C 319.765 89.080,318.485 88.000,318.291 88.000 C 318.096 88.000,317.246 87.280,316.400 86.400 C 315.554 85.520,314.667 84.800,314.428 84.800 C 314.188 84.800,313.428 84.260,312.737 83.600 C 312.046 82.940,311.310 82.400,311.101 82.400 C 310.892 82.400,310.217 81.860,309.600 81.200 C 308.983 80.540,308.378 80.000,308.254 80.000 C 308.130 80.000,307.257 79.453,306.314 78.785 C 303.362 76.694,301.652 75.615,301.117 75.506 C 300.833 75.448,300.309 75.085,299.953 74.700 C 299.597 74.315,299.052 74.000,298.741 74.000 C 298.431 74.000,297.917 73.640,297.600 73.200 C 297.283 72.760,296.703 72.400,296.312 72.400 C 295.920 72.400,295.600 72.220,295.600 72.000 C 295.600 71.780,295.280 71.600,294.888 71.600 C 294.497 71.600,293.917 71.240,293.600 70.800 C 293.283 70.360,292.703 70.000,292.312 70.000 C 291.920 70.000,291.600 69.820,291.600 69.600 C 291.600 69.380,291.322 69.200,290.983 69.200 C 290.644 69.200,290.006 68.864,289.566 68.454 C 289.125 68.043,287.918 67.278,286.882 66.754 C 285.847 66.229,284.940 65.665,284.867 65.500 C 284.793 65.335,284.504 65.200,284.223 65.200 C 283.590 65.200,278.649 62.711,278.467 62.300 C 278.393 62.135,277.988 62.000,277.567 62.000 C 277.145 62.000,276.800 61.790,276.800 61.533 C 276.800 61.277,276.685 61.182,276.544 61.323 C 276.403 61.464,275.818 61.329,275.244 61.024 C 273.234 59.957,270.331 58.766,269.171 58.534 C 268.527 58.405,268.000 58.142,268.000 57.950 C 268.000 57.758,267.550 57.600,267.000 57.600 C 266.450 57.600,266.000 57.420,266.000 57.200 C 266.000 56.980,265.651 56.800,265.224 56.800 C 264.797 56.800,264.336 56.620,264.200 56.400 C 264.064 56.180,263.513 56.000,262.976 56.000 C 262.439 56.000,262.000 55.820,262.000 55.600 C 262.000 55.380,261.460 55.200,260.800 55.200 C 260.140 55.200,259.600 55.020,259.600 54.800 C 259.600 54.580,259.161 54.400,258.624 54.400 C 258.087 54.400,257.536 54.220,257.400 54.000 C 257.264 53.780,256.713 53.600,256.176 53.600 C 255.639 53.600,255.200 53.420,255.200 53.200 C 255.200 52.980,254.750 52.800,254.200 52.800 C 253.650 52.800,253.200 52.620,253.200 52.400 C 253.200 52.180,252.570 52.000,251.800 52.000 C 251.030 52.000,250.400 51.820,250.400 51.600 C 250.400 51.380,249.860 51.200,249.200 51.200 C 248.540 51.200,248.000 51.020,248.000 50.800 C 248.000 50.580,247.460 50.400,246.800 50.400 C 246.140 50.400,245.600 50.220,245.600 50.000 C 245.600 49.780,244.880 49.600,244.000 49.600 C 243.120 49.600,242.400 49.420,242.400 49.200 C 242.400 48.980,241.781 48.800,241.024 48.800 C 240.267 48.800,239.536 48.620,239.400 48.400 C 239.264 48.180,238.544 48.000,237.800 48.000 C 237.056 48.000,236.336 47.820,236.200 47.600 C 236.064 47.380,235.344 47.200,234.600 47.200 C 233.856 47.200,233.136 47.020,233.000 46.800 C 232.864 46.580,231.953 46.400,230.976 46.400 C 229.999 46.400,229.200 46.220,229.200 46.000 C 229.200 45.780,228.300 45.600,227.200 45.600 C 226.100 45.600,225.200 45.437,225.200 45.237 C 225.200 45.037,224.255 44.775,223.100 44.654 C 221.945 44.532,219.740 44.249,218.200 44.023 C 212.947 43.254,208.204 42.734,205.000 42.576 C 203.240 42.489,201.800 42.398,201.800 42.373 C 201.800 42.347,201.205 42.242,200.477 42.139 L 199.154 41.950 199.433 43.475 M300.493 152.400 C 300.493 153.170,300.575 153.485,300.676 153.100 C 300.776 152.715,300.776 152.085,300.676 151.700 C 300.575 151.315,300.493 151.630,300.493 152.400 " stroke="none" fill="#58b62c" fill-rule="evenodd"></path><path id="path3" d="M143.000 92.383 C 115.137 94.895,93.058 104.889,81.652 120.152 C 56.341 154.020,58.553 216.969,86.538 259.200 C 94.899 271.818,106.472 284.057,114.545 288.821 C 116.700 290.092,116.312 289.461,114.100 288.097 C 108.752 284.798,99.973 276.400,94.600 269.443 C 93.940 268.588,93.214 267.689,92.987 267.444 C 92.760 267.200,92.138 266.370,91.606 265.600 C 91.074 264.830,90.525 264.110,90.387 264.000 C 89.078 262.959,79.200 246.153,79.200 244.967 C 79.200 244.655,79.020 244.400,78.800 244.400 C 78.580 244.400,78.400 244.051,78.400 243.624 C 78.400 243.197,78.220 242.736,78.000 242.600 C 77.780 242.464,77.600 242.018,77.600 241.610 C 77.600 241.201,77.399 240.800,77.154 240.718 C 76.909 240.636,76.780 240.216,76.867 239.785 C 76.974 239.253,77.698 240.354,79.115 243.200 C 81.537 248.069,82.481 249.747,82.900 249.933 C 83.065 250.007,83.200 250.244,83.200 250.461 C 83.200 250.678,83.713 251.608,84.341 252.528 C 84.968 253.448,85.584 254.470,85.709 254.800 C 85.906 255.320,85.941 255.317,85.968 254.778 C 86.006 254.035,88.430 251.600,89.132 251.600 C 89.403 251.600,89.736 251.285,89.872 250.900 C 90.231 249.883,91.653 248.400,92.270 248.400 C 92.561 248.400,92.800 248.167,92.800 247.881 C 92.800 247.233,95.662 244.400,96.317 244.400 C 96.583 244.400,96.800 244.165,96.800 243.878 C 96.800 243.225,99.266 240.800,99.932 240.800 C 100.203 240.800,100.536 240.485,100.672 240.100 C 101.034 239.074,102.455 237.600,103.082 237.600 C 103.381 237.600,103.735 237.285,103.870 236.900 C 104.223 235.893,106.461 233.600,107.091 233.600 C 107.385 233.600,107.735 233.285,107.870 232.900 C 108.220 231.903,110.459 229.600,111.078 229.600 C 111.365 229.600,111.600 229.385,111.600 229.122 C 111.600 228.465,113.629 226.400,114.275 226.400 C 114.564 226.400,114.800 226.165,114.800 225.878 C 114.800 225.259,117.103 223.020,118.100 222.670 C 118.485 222.535,118.800 222.180,118.800 221.880 C 118.800 221.580,120.149 220.027,121.799 218.427 C 123.448 216.828,124.697 215.358,124.575 215.160 C 124.453 214.962,124.565 214.800,124.825 214.800 C 125.159 214.800,125.136 214.601,124.749 214.123 C 124.276 213.540,124.283 213.493,124.800 213.782 C 125.288 214.055,125.307 214.017,124.900 213.579 C 124.625 213.282,124.400 212.705,124.400 212.296 C 124.400 211.887,124.229 211.658,124.021 211.787 C 123.812 211.916,123.712 211.657,123.798 211.211 C 123.899 210.685,123.741 210.400,123.350 210.400 C 122.928 210.400,122.823 210.159,123.000 209.600 C 123.146 209.141,123.072 208.800,122.827 208.800 C 122.592 208.800,122.400 208.350,122.400 207.800 C 122.400 207.250,122.220 206.800,122.000 206.800 C 121.780 206.800,121.600 206.434,121.600 205.986 C 121.600 205.538,121.309 204.728,120.954 204.186 C 120.599 203.644,120.464 203.197,120.654 203.194 C 120.844 203.191,120.819 203.056,120.598 202.894 C 120.076 202.513,119.200 199.991,119.200 198.872 C 119.200 198.392,119.020 198.000,118.800 198.000 C 118.580 198.000,118.400 197.640,118.400 197.200 C 118.400 196.760,118.175 196.397,117.900 196.394 C 117.567 196.390,117.600 196.258,118.000 196.000 C 118.400 195.742,118.433 195.610,118.100 195.606 C 117.812 195.603,117.600 195.090,117.600 194.400 C 117.600 193.740,117.440 193.200,117.245 193.200 C 116.892 193.200,116.551 191.941,116.135 189.100 C 116.015 188.275,115.755 187.600,115.558 187.600 C 115.361 187.600,115.200 186.700,115.200 185.600 C 115.200 184.500,115.036 183.600,114.836 183.600 C 114.471 183.600,114.168 181.325,113.758 175.500 C 113.637 173.795,113.373 172.400,113.170 172.400 C 112.953 172.400,112.800 168.251,112.800 162.400 C 112.800 156.000,112.944 152.400,113.200 152.400 C 113.425 152.400,113.600 151.275,113.600 149.824 C 113.600 148.407,113.780 147.136,114.000 147.000 C 114.220 146.864,114.400 145.773,114.400 144.576 C 114.400 143.379,114.580 142.400,114.800 142.400 C 115.020 142.400,115.200 141.770,115.200 141.000 C 115.200 140.230,115.380 139.600,115.600 139.600 C 115.820 139.600,116.000 139.060,116.000 138.400 C 116.000 137.740,116.180 137.200,116.400 137.200 C 116.620 137.200,116.800 136.660,116.800 136.000 C 116.800 135.340,116.980 134.800,117.200 134.800 C 117.420 134.800,117.600 134.260,117.600 133.600 C 117.600 132.940,117.780 132.400,118.000 132.400 C 118.220 132.400,118.400 132.040,118.400 131.600 C 118.400 131.160,118.580 130.800,118.800 130.800 C 119.020 130.800,119.200 130.260,119.200 129.600 C 119.200 128.940,119.380 128.400,119.600 128.400 C 119.820 128.400,120.000 128.122,120.000 127.783 C 120.000 127.444,120.360 126.780,120.800 126.308 C 121.240 125.836,121.600 125.213,121.600 124.925 C 121.600 124.636,121.780 124.400,122.000 124.400 C 122.220 124.400,122.400 124.158,122.400 123.862 C 122.400 123.566,122.760 122.998,123.200 122.600 C 123.640 122.202,124.000 121.658,124.000 121.391 C 124.000 120.716,131.016 113.600,131.682 113.600 C 131.980 113.600,132.483 113.240,132.800 112.800 C 133.117 112.360,133.682 112.000,134.055 112.000 C 134.428 112.000,134.793 111.859,134.867 111.687 C 135.086 111.172,142.583 107.600,143.444 107.600 C 143.882 107.600,144.419 107.421,144.638 107.202 C 144.856 106.984,145.522 106.764,146.118 106.715 C 146.713 106.666,147.200 106.526,147.200 106.404 C 147.200 106.134,151.104 105.200,152.232 105.200 C 152.676 105.200,153.211 105.030,153.420 104.821 C 153.629 104.613,154.565 104.398,155.500 104.343 C 156.435 104.288,157.200 104.114,157.200 103.955 C 157.200 103.489,162.322 103.160,172.700 102.960 C 179.234 102.834,182.400 102.908,182.400 103.186 C 182.400 103.436,183.656 103.600,185.576 103.600 C 187.323 103.600,188.864 103.780,189.000 104.000 C 189.136 104.220,190.227 104.400,191.424 104.400 C 192.621 104.400,193.600 104.580,193.600 104.800 C 193.600 105.020,194.511 105.200,195.624 105.200 C 196.871 105.200,197.552 105.353,197.400 105.600 C 197.251 105.842,197.796 106.000,198.776 106.000 C 199.669 106.000,200.400 106.179,200.400 106.398 C 200.400 106.620,201.022 106.715,201.813 106.614 C 202.656 106.506,203.131 106.588,202.990 106.817 C 202.859 107.027,202.988 107.213,203.276 107.230 C 204.291 107.287,205.571 107.594,207.277 108.188 C 208.224 108.518,209.394 108.791,209.876 108.794 C 210.358 108.797,210.864 108.980,211.000 109.200 C 211.136 109.420,211.697 109.600,212.247 109.600 C 212.812 109.600,213.140 109.774,213.000 110.000 C 212.864 110.220,213.123 110.400,213.576 110.400 C 214.029 110.400,214.400 110.580,214.400 110.800 C 214.400 111.020,214.940 111.200,215.600 111.200 C 216.260 111.200,216.800 111.380,216.800 111.600 C 216.800 111.820,217.034 112.000,217.320 112.000 C 218.056 112.000,219.993 112.941,219.997 113.300 C 219.999 113.465,220.405 113.587,220.900 113.572 C 221.759 113.545,221.763 113.528,221.000 113.200 C 220.335 112.914,220.315 112.851,220.886 112.828 C 221.263 112.813,221.769 113.169,222.010 113.619 C 222.314 114.186,222.687 114.363,223.224 114.192 C 224.067 113.925,224.319 114.605,223.500 114.935 C 223.168 115.069,223.208 115.147,223.620 115.168 C 223.961 115.186,224.482 114.975,224.779 114.700 C 225.218 114.292,225.273 114.327,225.076 114.887 C 224.944 115.265,224.994 115.673,225.189 115.793 C 225.384 115.913,225.601 115.604,225.671 115.106 C 225.757 114.500,226.032 114.239,226.500 114.318 C 227.637 114.508,227.299 113.711,226.000 113.136 C 225.340 112.844,224.800 112.469,224.800 112.302 C 224.800 112.136,224.564 112.000,224.275 112.000 C 223.987 112.000,223.364 111.640,222.892 111.200 C 222.420 110.760,221.756 110.400,221.417 110.400 C 221.078 110.400,220.799 110.265,220.799 110.100 C 220.798 109.935,219.808 109.350,218.600 108.800 C 217.392 108.250,216.402 107.665,216.401 107.500 C 216.401 107.335,216.040 107.200,215.600 107.200 C 215.160 107.200,214.800 107.020,214.800 106.800 C 214.800 106.580,214.440 106.400,214.000 106.400 C 213.560 106.400,213.200 106.220,213.200 106.000 C 213.200 105.780,212.840 105.600,212.400 105.600 C 211.960 105.600,211.600 105.420,211.600 105.200 C 211.600 104.980,211.859 104.800,212.176 104.800 C 212.493 104.800,212.864 104.980,213.000 105.200 C 213.136 105.420,213.597 105.600,214.024 105.600 C 214.451 105.600,214.800 105.780,214.800 106.000 C 214.800 106.220,215.045 106.400,215.345 106.400 C 215.867 106.400,220.148 108.518,223.300 110.335 C 224.125 110.811,225.406 111.543,226.146 111.963 C 236.594 117.884,252.036 130.799,257.069 137.824 C 257.911 139.000,258.743 139.970,258.918 139.981 C 260.093 140.052,252.269 131.424,246.741 126.553 C 218.675 101.819,179.919 89.054,143.000 92.383 M226.060 115.980 C 226.232 116.496,226.781 116.588,226.830 116.110 C 226.847 115.951,226.644 115.748,226.380 115.660 C 226.116 115.572,225.972 115.716,226.060 115.980 M259.222 140.600 C 259.227 141.129,260.342 142.591,260.569 142.365 C 260.666 142.268,260.402 141.741,259.982 141.194 C 259.561 140.647,259.220 140.380,259.222 140.600 M260.800 142.908 C 260.800 143.055,261.163 143.823,261.608 144.614 C 262.052 145.405,262.311 146.220,262.184 146.426 C 262.057 146.632,262.143 146.800,262.376 146.800 C 262.609 146.800,262.800 147.160,262.800 147.600 C 262.800 148.040,262.980 148.400,263.200 148.400 C 263.420 148.400,263.600 148.861,263.600 149.424 C 263.600 150.004,263.773 150.340,264.000 150.200 C 264.225 150.061,264.400 150.382,264.400 150.934 C 264.400 151.473,264.662 152.015,264.983 152.138 C 265.459 152.321,265.494 152.165,265.175 151.281 C 263.951 147.900,260.800 141.868,260.800 142.908 M265.200 154.224 C 265.200 154.804,265.373 155.140,265.600 155.000 C 265.820 154.864,266.000 154.403,266.000 153.976 C 266.000 153.549,265.820 153.200,265.600 153.200 C 265.380 153.200,265.200 153.661,265.200 154.224 M268.480 173.441 C 268.436 174.564,268.313 176.634,268.206 178.041 C 268.030 180.364,268.050 180.453,268.421 179.000 C 268.646 178.120,268.769 176.050,268.695 174.400 C 268.598 172.221,268.539 171.958,268.480 173.441 M267.400 182.800 C 267.246 183.710,267.211 184.544,267.321 184.654 C 267.431 184.764,267.646 184.110,267.800 183.200 C 267.954 182.290,267.989 181.456,267.879 181.346 C 267.769 181.236,267.554 181.890,267.400 182.800 M266.629 186.629 C 266.481 187.215,266.438 187.772,266.532 187.866 C 266.627 187.960,266.824 187.558,266.971 186.971 C 267.119 186.385,267.162 185.828,267.068 185.734 C 266.973 185.640,266.776 186.042,266.629 186.629 M265.029 192.229 C 264.881 192.815,264.838 193.372,264.932 193.466 C 265.027 193.560,265.224 193.158,265.371 192.571 C 265.519 191.985,265.562 191.428,265.468 191.334 C 265.373 191.240,265.176 191.642,265.029 192.229 M262.065 200.217 C 261.395 201.688,261.523 202.002,262.247 200.665 C 262.586 200.040,262.788 199.454,262.696 199.363 C 262.605 199.271,262.321 199.656,262.065 200.217 M260.672 203.419 C 259.732 205.389,259.864 205.724,260.847 203.862 C 261.293 203.016,261.587 202.254,261.501 202.167 C 261.414 202.081,261.041 202.644,260.672 203.419 M257.200 210.400 C 256.751 211.280,256.474 212.000,256.584 212.000 C 256.694 212.000,257.151 211.280,257.600 210.400 C 258.049 209.520,258.326 208.800,258.216 208.800 C 258.106 208.800,257.649 209.520,257.200 210.400 M76.794 238.500 C 76.797 238.665,76.620 238.800,76.400 238.800 C 76.180 238.800,76.003 238.395,76.006 237.900 C 76.012 237.041,76.776 237.623,76.794 238.500 M236.175 240.500 L 235.000 241.800 236.300 240.625 C 237.015 239.979,237.600 239.394,237.600 239.325 C 237.600 239.016,237.270 239.288,236.175 240.500 M232.975 244.100 L 231.800 245.400 233.100 244.225 C 233.815 243.579,234.400 242.994,234.400 242.925 C 234.400 242.616,234.070 242.888,232.975 244.100 M228.587 248.900 L 226.200 251.400 228.700 249.013 C 230.075 247.699,231.200 246.574,231.200 246.513 C 231.200 246.217,230.805 246.578,228.587 248.900 M221.200 256.200 C 219.561 257.850,218.310 259.200,218.420 259.200 C 218.530 259.200,219.961 257.850,221.600 256.200 C 223.239 254.550,224.490 253.200,224.380 253.200 C 224.270 253.200,222.839 254.550,221.200 256.200 M215.578 261.500 L 214.200 263.000 215.700 261.622 C 217.096 260.338,217.384 260.000,217.078 260.000 C 217.012 260.000,216.337 260.675,215.578 261.500 M212.175 264.500 L 211.000 265.800 212.300 264.625 C 213.015 263.979,213.600 263.394,213.600 263.325 C 213.600 263.016,213.270 263.288,212.175 264.500 M179.200 286.800 C 177.550 287.658,176.339 288.369,176.510 288.380 C 176.935 288.407,182.400 285.638,182.400 285.395 C 182.400 285.125,182.532 285.067,179.200 286.800 M161.000 294.000 C 160.496 294.217,160.422 294.344,160.800 294.344 C 161.130 294.344,161.760 294.189,162.200 294.000 C 162.704 293.783,162.778 293.656,162.400 293.656 C 162.070 293.656,161.440 293.811,161.000 294.000 M147.800 296.400 L 145.400 296.666 147.400 296.703 C 148.500 296.724,150.210 296.597,151.200 296.420 C 153.524 296.007,151.465 295.995,147.800 296.400 M138.100 296.676 C 138.485 296.776,139.115 296.776,139.500 296.676 C 139.885 296.575,139.570 296.493,138.800 296.493 C 138.030 296.493,137.715 296.575,138.100 296.676 " stroke="none" fill="#ef7c05" fill-rule="evenodd"></path><path id="path4" d="M233.434 63.544 C 233.329 63.714,234.268 64.382,235.522 65.027 C 236.775 65.672,238.008 66.396,238.263 66.635 C 238.606 66.956,234.455 71.349,222.304 83.522 L 205.881 99.974 207.040 100.450 C 208.004 100.846,208.073 100.956,207.447 101.102 C 207.034 101.199,206.314 101.093,205.847 100.865 C 205.133 100.516,200.743 99.096,194.346 97.146 C 193.547 96.902,192.647 96.787,192.346 96.891 C 192.046 96.995,192.430 97.218,193.200 97.387 C 215.928 102.365,247.287 122.748,259.464 140.457 C 262.456 144.807,265.300 150.563,265.300 152.266 C 265.300 152.780,265.441 153.200,265.613 153.200 C 265.785 153.200,266.027 154.145,266.150 155.300 C 266.623 159.737,266.893 161.200,267.240 161.200 C 267.438 161.200,267.603 163.045,267.606 165.300 C 267.610 167.650,267.755 169.175,267.946 168.873 C 268.157 168.541,268.377 169.267,268.540 170.832 C 271.988 203.822,227.243 262.301,179.800 286.809 C 170.543 291.591,156.757 296.203,151.000 296.443 C 150.138 296.479,150.025 296.550,150.600 296.695 C 153.198 297.352,172.679 292.907,176.495 290.786 C 176.877 290.574,177.356 290.400,177.560 290.400 C 178.777 290.400,193.989 282.953,198.790 280.006 C 200.588 278.903,202.141 278.000,202.241 278.000 C 203.103 278.000,220.194 265.734,225.719 261.150 C 227.304 259.836,228.960 258.466,229.400 258.107 C 236.786 252.073,251.468 237.646,258.411 229.600 C 259.834 227.950,261.092 226.510,261.205 226.400 C 261.318 226.290,262.216 225.210,263.200 224.000 C 264.184 222.790,265.102 221.710,265.240 221.600 C 265.378 221.490,267.512 218.700,269.983 215.400 C 272.454 212.100,274.703 209.113,274.981 208.762 C 276.484 206.863,279.663 201.894,283.912 194.800 C 285.927 191.435,291.012 181.531,292.131 178.790 C 292.533 177.806,293.028 176.595,293.231 176.100 C 295.107 171.524,296.011 169.013,296.833 166.100 C 297.035 165.385,297.392 164.125,297.627 163.300 C 304.919 137.659,299.702 115.235,282.047 96.333 C 275.570 89.398,254.837 72.800,252.653 72.800 C 252.559 72.800,251.248 72.048,249.741 71.130 C 244.863 68.158,233.772 62.998,233.434 63.544 M144.305 92.283 C 144.802 92.379,145.522 92.375,145.905 92.275 C 146.287 92.175,145.880 92.096,145.000 92.101 C 144.120 92.105,143.807 92.187,144.305 92.283 M162.900 92.287 C 163.505 92.378,164.495 92.378,165.100 92.287 C 165.705 92.195,165.210 92.120,164.000 92.120 C 162.790 92.120,162.295 92.195,162.900 92.287 M171.700 93.076 C 172.085 93.176,172.715 93.176,173.100 93.076 C 173.485 92.975,173.170 92.893,172.400 92.893 C 171.630 92.893,171.315 92.975,171.700 93.076 M178.200 94.000 C 179.892 94.431,181.344 94.431,180.000 94.000 C 179.450 93.824,178.550 93.683,178.000 93.687 C 177.102 93.694,177.122 93.726,178.200 94.000 M181.633 94.547 C 181.725 94.628,182.520 94.804,183.400 94.938 C 184.515 95.107,184.758 95.071,184.200 94.819 C 183.432 94.471,181.290 94.244,181.633 94.547 M186.400 95.600 C 187.768 96.038,188.819 96.038,187.800 95.600 C 187.360 95.411,186.640 95.262,186.200 95.268 C 185.557 95.277,185.596 95.343,186.400 95.600 M189.600 96.400 C 191.142 96.894,191.964 96.894,191.200 96.400 C 190.870 96.187,190.150 96.027,189.600 96.046 L 188.600 96.080 189.600 96.400 M64.101 173.000 C 64.105 173.880,64.187 174.193,64.283 173.695 C 64.379 173.198,64.375 172.478,64.275 172.095 C 64.175 171.713,64.096 172.120,64.101 173.000 M64.114 192.200 C 64.117 193.300,64.195 193.703,64.287 193.095 C 64.379 192.486,64.377 191.586,64.282 191.095 C 64.187 190.603,64.111 191.100,64.114 192.200 M64.493 196.400 C 64.493 197.170,64.575 197.485,64.676 197.100 C 64.776 196.715,64.776 196.085,64.676 195.700 C 64.575 195.315,64.493 195.630,64.493 196.400 M64.893 200.400 C 64.893 201.170,64.975 201.485,65.076 201.100 C 65.176 200.715,65.176 200.085,65.076 199.700 C 64.975 199.315,64.893 199.630,64.893 200.400 M65.687 206.000 C 65.683 206.550,65.824 207.450,66.000 208.000 C 66.431 209.344,66.431 207.892,66.000 206.200 C 65.726 205.122,65.694 205.102,65.687 206.000 M66.480 210.400 C 66.480 210.950,66.624 211.850,66.800 212.400 L 67.120 213.400 67.120 212.400 C 67.120 211.850,66.976 210.950,66.800 210.400 L 66.480 209.400 66.480 210.400 M67.200 213.957 C 67.200 214.957,69.682 224.232,71.018 228.226 C 71.778 230.498,72.400 232.637,72.400 232.978 C 72.400 233.320,72.580 233.600,72.800 233.600 C 73.020 233.600,73.200 234.039,73.200 234.576 C 73.200 235.113,73.380 235.664,73.600 235.800 C 73.820 235.936,74.000 236.407,74.000 236.847 C 74.000 237.287,73.820 237.536,73.600 237.400 C 73.380 237.264,73.200 236.803,73.200 236.376 C 73.200 235.949,73.020 235.600,72.800 235.600 C 72.580 235.600,72.400 235.246,72.400 234.813 C 72.400 233.839,71.216 234.157,71.168 235.143 C 71.142 235.690,71.099 235.700,70.908 235.200 C 70.783 234.870,70.536 234.505,70.359 234.388 C 70.183 234.272,69.130 232.387,68.019 230.199 C 66.065 226.349,65.230 225.739,66.744 229.267 C 68.959 234.431,72.016 240.876,72.403 241.200 C 72.534 241.310,72.952 242.030,73.332 242.800 C 74.690 245.556,78.401 251.622,81.161 255.600 C 83.095 258.386,87.606 264.470,87.983 264.800 C 88.108 264.910,89.014 265.990,89.995 267.200 C 95.944 274.536,109.690 287.177,111.740 287.197 C 111.926 287.199,111.026 286.402,109.740 285.426 C 101.197 278.949,89.549 264.967,82.725 253.000 C 76.422 241.946,71.521 229.857,68.611 218.189 C 67.562 213.981,67.200 212.896,67.200 213.957 " stroke="none" fill="#df268c" fill-rule="evenodd"></path><path id="path5" d="M211.600 105.200 C 211.600 105.420,211.960 105.600,212.400 105.600 C 212.840 105.600,213.200 105.780,213.200 106.000 C 213.200 106.220,213.560 106.400,214.000 106.400 C 214.440 106.400,214.800 106.580,214.800 106.800 C 214.800 107.020,215.160 107.200,215.600 107.200 C 216.040 107.200,216.401 107.335,216.401 107.500 C 216.402 107.665,217.392 108.250,218.600 108.800 C 219.808 109.350,220.798 109.935,220.799 110.100 C 220.799 110.265,221.078 110.400,221.417 110.400 C 221.756 110.400,222.420 110.760,222.892 111.200 C 223.364 111.640,223.987 112.000,224.275 112.000 C 224.564 112.000,224.800 112.136,224.800 112.302 C 224.800 112.469,225.340 112.844,226.000 113.136 C 227.299 113.711,227.637 114.508,226.500 114.318 C 226.033 114.239,225.758 114.499,225.672 115.098 C 225.580 115.751,225.705 115.935,226.132 115.771 C 226.455 115.647,226.855 115.766,227.021 116.035 C 227.227 116.368,227.157 116.421,226.800 116.200 C 226.443 115.979,226.373 116.032,226.579 116.365 C 226.745 116.634,227.124 116.761,227.420 116.648 C 227.767 116.515,227.880 116.647,227.737 117.020 C 227.578 117.435,227.811 117.600,228.557 117.600 C 229.131 117.600,229.600 117.780,229.600 118.000 C 229.600 118.220,229.735 118.356,229.900 118.303 C 230.374 118.150,232.025 119.442,231.731 119.736 C 231.586 119.881,231.857 120.000,232.333 120.000 C 232.810 120.000,233.200 120.195,233.200 120.433 C 233.200 120.672,233.416 120.795,233.681 120.706 C 233.945 120.618,234.590 120.918,235.113 121.373 C 235.636 121.828,236.215 122.200,236.398 122.200 C 236.582 122.200,237.063 122.577,237.466 123.037 C 237.870 123.498,238.450 123.790,238.756 123.685 C 239.094 123.570,239.202 123.673,239.032 123.948 C 238.787 124.344,239.017 124.467,239.830 124.374 C 239.957 124.359,240.383 124.719,240.777 125.174 C 241.171 125.628,241.708 126.000,241.971 126.000 C 242.233 126.000,242.360 126.142,242.252 126.315 C 242.145 126.488,242.576 126.860,243.210 127.140 C 243.844 127.421,244.473 127.999,244.608 128.425 C 244.743 128.851,245.112 129.200,245.427 129.200 C 245.742 129.200,246.000 129.380,246.000 129.600 C 246.000 129.820,246.186 130.000,246.413 130.000 C 246.641 130.000,248.333 131.485,250.173 133.300 C 252.014 135.115,253.898 136.865,254.360 137.188 C 254.822 137.512,255.200 138.017,255.200 138.312 C 255.200 138.606,255.380 138.736,255.600 138.600 C 255.820 138.464,256.000 138.556,256.000 138.805 C 256.000 139.415,257.042 140.424,257.352 140.114 C 257.489 139.978,257.600 140.167,257.600 140.533 C 257.600 140.900,257.780 141.200,258.000 141.200 C 258.220 141.200,258.400 141.427,258.400 141.704 C 258.400 141.981,258.850 142.693,259.400 143.287 C 259.950 143.880,260.400 144.566,260.400 144.811 C 260.400 145.379,261.410 146.400,261.971 146.400 C 262.666 146.400,261.294 143.370,259.900 141.825 C 259.515 141.398,259.200 140.828,259.200 140.558 C 259.200 140.288,259.065 140.007,258.900 139.933 C 258.735 139.860,257.848 138.810,256.928 137.600 C 251.230 130.104,236.483 117.821,226.146 111.963 C 225.406 111.543,224.125 110.811,223.300 110.335 C 220.148 108.518,215.867 106.400,215.345 106.400 C 215.045 106.400,214.800 106.220,214.800 106.000 C 214.800 105.780,214.451 105.600,214.024 105.600 C 213.597 105.600,213.136 105.420,213.000 105.200 C 212.864 104.980,212.493 104.800,212.176 104.800 C 211.859 104.800,211.600 104.980,211.600 105.200 M220.900 113.076 C 221.285 113.176,221.600 113.515,221.600 113.829 C 221.600 114.515,222.240 114.582,222.638 113.938 C 222.805 113.669,222.749 113.584,222.504 113.736 C 222.273 113.879,221.981 113.726,221.854 113.398 C 221.728 113.069,221.304 112.821,220.913 112.846 C 220.245 112.890,220.244 112.904,220.900 113.076 M262.000 147.400 C 262.000 147.730,262.180 148.000,262.400 148.000 C 262.620 148.000,262.800 147.730,262.800 147.400 C 262.800 147.070,262.620 146.800,262.400 146.800 C 262.180 146.800,262.000 147.070,262.000 147.400 M262.800 149.000 C 262.800 149.330,262.980 149.600,263.200 149.600 C 263.420 149.600,263.600 149.330,263.600 149.000 C 263.600 148.670,263.420 148.400,263.200 148.400 C 262.980 148.400,262.800 148.670,262.800 149.000 M267.631 172.900 C 267.590 174.935,267.387 176.771,267.178 176.980 C 266.970 177.189,266.800 178.134,266.800 179.080 C 266.800 180.026,266.620 180.800,266.400 180.800 C 266.180 180.800,266.000 181.520,266.000 182.400 C 266.000 183.280,265.820 184.000,265.600 184.000 C 265.380 184.000,265.200 184.540,265.200 185.200 C 265.200 185.860,265.020 186.400,264.800 186.400 C 264.580 186.400,264.400 186.839,264.400 187.376 C 264.400 187.913,264.220 188.464,264.000 188.600 C 263.780 188.736,263.600 189.197,263.600 189.624 C 263.600 190.051,263.420 190.400,263.200 190.400 C 262.980 190.400,262.800 190.749,262.800 191.176 C 262.800 191.603,262.620 192.064,262.400 192.200 C 262.180 192.336,262.000 192.797,262.000 193.224 C 262.000 193.651,261.820 194.000,261.600 194.000 C 261.380 194.000,261.200 194.360,261.200 194.800 C 261.200 195.240,261.020 195.600,260.800 195.600 C 260.580 195.600,260.400 195.960,260.400 196.400 C 260.400 196.840,260.220 197.200,260.000 197.200 C 259.780 197.200,259.600 197.487,259.600 197.838 C 259.600 198.544,258.373 200.923,257.900 201.133 C 257.735 201.207,257.600 201.572,257.600 201.945 C 257.600 202.318,257.240 202.883,256.800 203.200 C 256.360 203.517,256.000 204.097,256.000 204.488 C 256.000 204.880,255.820 205.200,255.600 205.200 C 255.380 205.200,255.200 205.520,255.200 205.912 C 255.200 206.303,254.840 206.883,254.400 207.200 C 253.960 207.517,253.600 208.017,253.600 208.312 C 253.600 208.606,253.420 208.736,253.200 208.600 C 252.980 208.464,252.800 208.633,252.800 208.976 C 252.800 209.319,252.650 209.600,252.468 209.600 C 252.285 209.600,251.880 210.095,251.568 210.700 C 251.255 211.305,250.505 212.277,249.900 212.860 C 249.295 213.444,248.800 214.118,248.800 214.358 C 248.800 214.599,247.900 215.715,246.800 216.839 C 245.700 217.962,244.800 219.048,244.800 219.252 C 244.800 219.669,243.215 221.436,240.077 224.516 C 238.909 225.662,236.075 228.445,233.778 230.700 C 231.481 232.955,229.422 234.800,229.201 234.800 C 228.981 234.800,228.800 234.980,228.800 235.200 C 228.800 235.420,228.641 235.600,228.447 235.600 C 228.253 235.600,227.368 236.275,226.479 237.100 C 222.586 240.717,221.989 241.200,221.411 241.200 C 221.075 241.200,220.800 241.359,220.800 241.554 C 220.800 241.749,220.125 242.226,219.300 242.614 C 218.475 243.001,217.710 243.433,217.600 243.574 C 217.490 243.715,216.500 244.403,215.400 245.104 C 214.300 245.805,213.183 246.564,212.917 246.789 C 212.651 247.015,212.156 247.200,211.817 247.200 C 211.478 247.200,211.200 247.380,211.200 247.600 C 211.200 247.820,210.952 248.000,210.649 248.000 C 210.346 248.000,209.876 248.268,209.604 248.596 C 209.332 248.923,208.983 249.113,208.828 249.017 C 208.673 248.921,208.293 249.193,207.985 249.621 C 207.676 250.050,207.103 250.400,206.712 250.400 C 206.320 250.400,206.000 250.580,206.000 250.800 C 206.000 251.020,205.561 251.200,205.024 251.200 C 204.487 251.200,203.936 251.380,203.800 251.600 C 203.664 251.820,203.203 252.000,202.776 252.000 C 202.349 252.000,202.000 252.180,202.000 252.400 C 202.000 252.620,201.640 252.800,201.200 252.800 C 200.760 252.800,200.400 252.980,200.400 253.200 C 200.400 253.420,199.849 253.600,199.176 253.600 C 198.463 253.600,198.056 253.767,198.200 254.000 C 198.340 254.226,198.012 254.400,197.447 254.400 C 196.897 254.400,196.336 254.580,196.200 254.800 C 196.064 255.020,195.423 255.200,194.776 255.200 C 194.129 255.200,193.600 255.380,193.600 255.600 C 193.600 255.820,193.060 256.000,192.400 256.000 C 191.740 256.000,191.200 256.180,191.200 256.400 C 191.200 256.620,190.300 256.800,189.200 256.800 C 188.100 256.800,187.200 256.980,187.200 257.200 C 187.200 257.453,184.259 257.600,179.176 257.600 C 173.929 257.600,171.238 257.462,171.400 257.200 C 171.549 256.959,171.012 256.800,170.047 256.800 C 169.167 256.800,168.336 256.620,168.200 256.400 C 168.064 256.180,167.333 256.000,166.576 256.000 C 165.819 256.000,165.200 255.820,165.200 255.600 C 165.200 255.380,164.840 255.200,164.400 255.200 C 163.960 255.200,163.600 255.020,163.600 254.800 C 163.600 254.580,163.060 254.400,162.400 254.400 C 161.740 254.400,161.200 254.220,161.200 254.000 C 161.200 253.780,160.840 253.600,160.400 253.600 C 159.960 253.600,159.600 253.420,159.600 253.200 C 159.600 252.980,159.280 252.800,158.888 252.800 C 158.497 252.800,157.917 252.440,157.600 252.000 C 157.283 251.560,156.793 251.200,156.512 251.200 C 156.230 251.200,156.000 251.020,156.000 250.800 C 156.000 250.580,155.640 250.400,155.200 250.400 C 154.760 250.400,154.400 250.220,154.400 250.000 C 154.400 249.780,154.119 249.600,153.776 249.600 C 153.433 249.600,153.256 249.433,153.382 249.229 C 153.508 249.025,153.252 248.743,152.813 248.604 C 152.373 248.465,151.276 247.642,150.374 246.775 C 149.472 245.909,148.569 245.200,148.367 245.200 C 148.165 245.200,148.000 244.930,148.000 244.600 C 148.000 244.270,147.838 244.000,147.639 244.000 C 147.053 244.000,139.600 236.316,139.600 235.712 C 139.600 235.538,138.880 234.631,138.000 233.697 C 137.119 232.762,136.354 231.773,136.300 231.499 C 136.182 230.912,134.828 229.600,134.339 229.600 C 134.152 229.600,134.000 229.193,134.000 228.696 C 134.000 228.199,133.640 227.568,133.200 227.293 C 132.760 227.018,132.400 226.514,132.400 226.173 C 132.400 225.832,132.220 225.664,132.000 225.800 C 131.780 225.936,131.600 225.767,131.600 225.424 C 131.600 225.081,131.465 224.799,131.300 224.797 C 130.965 224.793,130.000 222.877,130.000 222.215 C 130.000 221.981,129.553 221.454,129.008 221.045 C 128.462 220.635,128.112 220.142,128.231 219.950 C 128.350 219.757,128.257 219.600,128.024 219.600 C 127.791 219.600,127.600 219.171,127.600 218.647 C 127.600 218.014,127.317 217.619,126.760 217.474 C 126.298 217.353,126.036 217.065,126.178 216.835 C 126.547 216.239,125.687 214.800,124.962 214.800 C 124.627 214.800,124.453 214.962,124.575 215.160 C 124.697 215.358,123.448 216.828,121.799 218.427 C 120.149 220.027,118.800 221.580,118.800 221.880 C 118.800 222.180,118.485 222.535,118.100 222.670 C 117.103 223.020,114.800 225.259,114.800 225.878 C 114.800 226.165,114.564 226.400,114.275 226.400 C 113.629 226.400,111.600 228.465,111.600 229.122 C 111.600 229.385,111.365 229.600,111.078 229.600 C 110.425 229.600,108.000 232.066,108.000 232.732 C 108.000 233.003,107.685 233.335,107.300 233.470 C 106.293 233.823,104.000 236.061,104.000 236.691 C 104.000 236.985,103.685 237.336,103.300 237.472 C 102.274 237.834,100.800 239.255,100.800 239.882 C 100.800 240.181,100.485 240.535,100.100 240.670 C 99.103 241.020,96.800 243.259,96.800 243.878 C 96.800 244.165,96.567 244.400,96.281 244.400 C 95.633 244.400,92.800 247.262,92.800 247.917 C 92.800 248.183,92.561 248.400,92.270 248.400 C 91.620 248.400,90.000 250.069,90.000 250.738 C 90.000 251.006,89.685 251.335,89.300 251.470 C 88.251 251.838,86.004 254.069,85.968 254.778 C 85.941 255.317,85.906 255.320,85.709 254.800 C 85.584 254.470,84.968 253.448,84.341 252.528 C 83.713 251.608,83.200 250.678,83.200 250.461 C 83.200 250.244,83.065 250.007,82.900 249.933 C 82.481 249.747,81.537 248.069,79.115 243.200 C 77.698 240.354,76.974 239.253,76.867 239.785 C 76.780 240.216,76.909 240.636,77.154 240.718 C 77.399 240.800,77.600 241.201,77.600 241.610 C 77.600 242.018,77.780 242.464,78.000 242.600 C 78.220 242.736,78.400 243.197,78.400 243.624 C 78.400 244.051,78.580 244.400,78.800 244.400 C 79.020 244.400,79.200 244.655,79.200 244.967 C 79.200 246.153,89.078 262.959,90.387 264.000 C 90.525 264.110,91.074 264.830,91.606 265.600 C 92.138 266.370,92.760 267.200,92.987 267.444 C 93.214 267.689,93.940 268.588,94.600 269.443 C 114.135 294.737,136.745 302.093,165.600 292.541 C 207.116 278.797,258.697 224.574,266.757 186.200 C 266.988 185.100,267.374 183.310,267.614 182.223 C 268.237 179.399,268.629 169.200,268.114 169.200 C 267.870 169.200,267.675 170.695,267.631 172.900 M76.006 237.900 C 76.003 238.395,76.180 238.800,76.400 238.800 C 76.901 238.800,76.901 238.376,76.400 237.600 C 76.086 237.115,76.011 237.172,76.006 237.900 " stroke="none" fill="#fbc304" fill-rule="evenodd"></path><path id="path6" d="M179.923 41.899 C 182.631 41.968,186.951 41.968,189.523 41.899 C 192.095 41.829,189.880 41.772,184.600 41.773 C 179.320 41.773,177.215 41.830,179.923 41.899 M167.470 42.264 C 167.325 42.409,165.945 42.558,164.403 42.595 C 160.446 42.692,159.926 42.757,160.156 43.129 C 160.268 43.310,159.201 43.408,157.786 43.346 C 156.316 43.283,154.654 43.461,153.907 43.763 C 153.188 44.054,151.975 44.237,151.212 44.170 C 150.448 44.103,149.638 44.198,149.412 44.379 C 149.185 44.561,148.280 44.811,147.400 44.935 C 146.520 45.058,144.810 45.358,143.600 45.600 C 142.390 45.842,140.680 46.142,139.800 46.265 C 138.920 46.389,138.020 46.633,137.800 46.807 C 137.413 47.114,136.008 47.449,133.296 47.881 C 132.579 47.995,131.894 48.249,131.773 48.444 C 131.652 48.640,130.833 48.800,129.953 48.800 C 128.988 48.800,128.451 48.959,128.600 49.200 C 128.744 49.433,128.337 49.600,127.624 49.600 C 126.951 49.600,126.400 49.780,126.400 50.000 C 126.400 50.220,125.860 50.400,125.200 50.400 C 124.540 50.400,124.000 50.580,124.000 50.800 C 124.000 51.020,123.460 51.200,122.800 51.200 C 122.140 51.200,121.600 51.380,121.600 51.600 C 121.600 51.820,121.060 52.000,120.400 52.000 C 119.740 52.000,119.200 52.180,119.200 52.400 C 119.200 52.620,118.761 52.800,118.224 52.800 C 117.687 52.800,117.136 52.980,117.000 53.200 C 116.864 53.420,116.403 53.600,115.976 53.600 C 115.549 53.600,115.200 53.780,115.200 54.000 C 115.200 54.220,114.761 54.400,114.224 54.400 C 113.687 54.400,113.136 54.580,113.000 54.800 C 112.864 55.020,112.403 55.200,111.976 55.200 C 111.549 55.200,111.200 55.380,111.200 55.600 C 111.200 55.820,110.930 56.000,110.600 56.000 C 110.270 56.000,110.000 56.180,110.000 56.400 C 110.000 56.898,110.983 56.918,111.905 56.440 C 112.758 55.998,121.321 53.579,126.164 52.413 C 141.925 48.616,165.563 47.134,181.600 48.938 C 184.790 49.297,188.390 49.680,189.600 49.789 C 193.343 50.127,189.576 49.371,184.800 48.827 C 182.490 48.563,179.176 48.180,177.436 47.974 C 175.696 47.768,169.306 47.595,163.236 47.588 C 148.680 47.572,150.021 46.949,165.200 46.676 C 177.024 46.464,180.694 46.078,177.384 45.393 C 176.513 45.213,175.630 45.107,175.422 45.159 C 174.821 45.307,173.206 44.315,173.437 43.940 C 173.553 43.753,173.491 43.600,173.300 43.600 C 173.109 43.600,172.604 43.317,172.176 42.970 C 171.749 42.624,171.580 42.421,171.800 42.520 C 172.020 42.619,172.560 42.555,173.000 42.378 C 173.704 42.095,173.671 42.053,172.724 42.028 C 172.132 42.013,171.536 42.180,171.400 42.400 C 171.264 42.620,170.973 42.800,170.753 42.800 C 170.533 42.800,170.464 42.620,170.600 42.400 C 170.934 41.860,169.871 41.889,169.325 42.435 C 169.012 42.748,168.815 42.748,168.622 42.435 C 168.317 41.942,167.859 41.874,167.470 42.264 M151.957 47.776 C 151.667 48.066,146.010 48.143,145.727 47.861 C 145.584 47.717,146.967 47.600,148.800 47.600 C 150.633 47.600,152.054 47.679,151.957 47.776 M142.705 48.675 C 142.322 48.775,141.602 48.779,141.105 48.683 C 140.607 48.587,140.920 48.505,141.800 48.501 C 142.680 48.496,143.087 48.575,142.705 48.675 M195.600 50.840 C 197.690 51.254,199.573 51.537,199.785 51.468 C 200.290 51.305,193.639 49.986,192.600 50.044 C 192.160 50.068,193.510 50.426,195.600 50.840 M106.200 58.000 C 106.064 58.220,106.323 58.400,106.776 58.400 C 107.229 58.400,107.600 58.220,107.600 58.000 C 107.600 57.780,107.341 57.600,107.024 57.600 C 106.707 57.600,106.336 57.780,106.200 58.000 M358.109 156.800 C 358.109 157.790,358.187 158.195,358.282 157.700 C 358.378 157.205,358.378 156.395,358.282 155.900 C 358.187 155.405,358.109 155.810,358.109 156.800 M358.114 165.000 C 358.117 166.100,358.195 166.503,358.287 165.895 C 358.379 165.286,358.377 164.386,358.282 163.895 C 358.187 163.403,358.111 163.900,358.114 165.000 M298.231 168.936 C 298.344 169.231,298.158 169.703,297.818 169.985 C 297.478 170.267,297.200 170.836,297.200 171.249 C 297.200 171.662,297.020 172.000,296.800 172.000 C 296.580 172.000,296.400 172.272,296.400 172.605 C 296.400 172.938,296.233 173.523,296.029 173.905 C 295.825 174.287,295.530 174.960,295.374 175.400 C 295.110 176.144,295.072 176.131,294.827 175.200 C 294.591 174.306,294.533 174.280,294.275 174.951 C 294.113 175.370,294.193 175.951,294.456 176.268 C 294.812 176.697,294.814 176.946,294.463 177.297 C 294.112 177.648,293.997 177.571,293.988 176.980 C 293.976 176.226,293.961 176.225,293.541 176.948 C 293.217 177.505,293.235 177.775,293.612 178.007 C 293.923 178.200,294.001 178.603,293.815 179.060 C 293.526 179.771,293.503 179.770,293.226 179.027 C 293.020 178.475,292.851 178.394,292.635 178.744 C 292.468 179.014,292.555 179.505,292.829 179.834 C 293.205 180.289,293.214 180.546,292.863 180.897 C 292.512 181.248,292.400 181.224,292.400 180.800 C 292.400 180.336,292.314 180.331,291.900 180.770 C 291.500 181.194,291.500 181.337,291.900 181.483 C 292.606 181.742,292.507 182.440,291.600 183.600 C 291.103 184.235,290.815 184.388,290.809 184.020 C 290.802 183.558,290.699 183.541,290.303 183.937 C 289.908 184.332,289.927 184.508,290.400 184.800 C 290.873 185.092,290.892 185.268,290.497 185.663 C 290.101 186.059,290.000 186.046,290.000 185.600 C 290.000 185.176,289.888 185.152,289.537 185.503 C 289.186 185.854,289.191 186.107,289.556 186.547 C 289.852 186.903,289.889 187.221,289.654 187.367 C 289.442 187.498,289.184 187.379,289.081 187.102 C 288.956 186.768,288.791 186.847,288.588 187.340 C 288.400 187.799,288.474 188.199,288.784 188.390 C 289.140 188.610,289.157 188.780,288.843 188.974 C 288.599 189.124,288.400 189.046,288.400 188.800 C 288.400 188.554,288.204 188.474,287.965 188.622 C 287.726 188.769,287.618 189.224,287.724 189.631 C 287.831 190.039,287.745 190.334,287.535 190.286 C 287.324 190.239,286.599 191.190,285.924 192.400 C 283.831 196.154,278.065 205.200,274.962 209.600 C 273.332 211.910,271.337 214.790,270.527 216.000 C 269.718 217.210,268.863 218.460,268.628 218.777 C 268.120 219.461,268.945 219.069,270.100 218.077 C 270.732 217.534,270.800 217.550,270.800 218.238 C 270.800 218.657,271.430 219.708,272.200 220.573 C 272.970 221.438,273.600 222.279,273.600 222.442 C 273.600 222.605,274.230 222.946,275.000 223.200 C 275.770 223.454,276.400 223.918,276.400 224.231 C 276.400 224.544,276.760 224.800,277.200 224.800 C 277.640 224.800,278.000 224.620,278.000 224.400 C 278.000 223.267,278.826 224.220,279.048 225.609 C 279.189 226.494,279.461 227.314,279.653 227.432 C 279.844 227.551,280.000 228.087,280.000 228.624 C 280.000 229.338,280.218 229.600,280.813 229.600 C 281.259 229.600,281.722 229.852,281.840 230.159 C 281.958 230.467,282.813 230.910,283.740 231.143 C 285.182 231.506,285.552 231.829,286.307 233.384 C 286.793 234.383,287.354 235.200,287.556 235.200 C 287.757 235.200,288.110 235.740,288.340 236.400 C 288.570 237.060,288.967 237.600,289.222 237.600 C 289.477 237.600,289.582 237.870,289.455 238.200 C 289.317 238.562,289.453 238.800,289.799 238.800 C 290.646 238.800,293.200 240.089,293.200 240.517 C 293.200 240.720,293.493 240.773,293.851 240.636 C 294.790 240.276,295.468 241.410,296.049 244.314 C 296.362 245.875,296.725 246.761,297.008 246.652 C 297.798 246.349,301.793 247.907,301.929 248.571 C 302.000 248.917,302.225 249.200,302.429 249.200 C 302.633 249.200,302.800 249.547,302.800 249.971 C 302.800 250.396,303.070 251.013,303.400 251.343 C 303.730 251.673,304.000 252.127,304.000 252.352 C 304.000 252.576,304.239 252.904,304.530 253.080 C 304.822 253.256,305.163 253.681,305.289 254.024 C 305.531 254.688,308.056 255.600,309.651 255.600 C 310.552 255.600,312.452 260.086,312.079 261.330 C 312.025 261.511,312.165 261.545,312.390 261.406 C 312.616 261.267,312.800 261.332,312.800 261.552 C 312.800 261.771,313.148 261.924,313.572 261.892 C 313.997 261.860,314.244 261.671,314.121 261.473 C 313.999 261.274,314.624 260.428,315.510 259.593 C 316.397 258.758,317.239 257.707,317.382 257.258 C 317.524 256.809,317.992 256.330,318.420 256.194 C 318.849 256.057,319.200 255.733,319.200 255.473 C 319.201 255.213,319.606 254.520,320.100 253.934 C 322.173 251.476,322.381 251.200,322.161 251.200 C 321.962 251.200,322.616 250.304,324.422 248.100 C 324.647 247.825,324.707 247.600,324.555 247.600 C 324.402 247.600,324.665 247.264,325.139 246.853 C 325.612 246.442,326.000 245.852,326.000 245.541 C 326.000 245.231,326.360 244.717,326.800 244.400 C 327.240 244.083,327.600 243.569,327.600 243.259 C 327.600 242.948,327.916 242.403,328.303 242.047 C 328.689 241.691,329.260 240.905,329.570 240.300 C 329.881 239.695,330.285 239.200,330.468 239.200 C 330.650 239.200,330.800 238.958,330.800 238.662 C 330.800 238.366,331.160 237.798,331.600 237.400 C 332.040 237.002,332.400 236.333,332.400 235.914 C 332.400 235.496,332.535 235.235,332.700 235.334 C 333.060 235.553,333.749 234.796,333.930 233.984 C 334.002 233.663,334.227 233.340,334.430 233.267 C 334.634 233.193,334.800 232.788,334.800 232.367 C 334.800 231.945,334.980 231.600,335.200 231.600 C 335.420 231.600,335.600 231.330,335.600 231.000 C 335.600 230.670,335.780 230.400,336.000 230.400 C 336.220 230.400,336.400 230.130,336.400 229.800 C 336.400 229.470,336.580 229.200,336.800 229.200 C 337.020 229.200,337.200 228.840,337.200 228.400 C 337.200 227.960,337.399 227.600,337.643 227.600 C 337.886 227.600,337.979 227.323,337.850 226.985 C 337.715 226.635,337.869 226.272,338.204 226.143 C 338.529 226.018,338.696 225.755,338.574 225.558 C 338.452 225.361,338.543 225.200,338.776 225.200 C 339.009 225.200,339.200 224.840,339.200 224.400 C 339.200 223.960,339.376 223.600,339.592 223.600 C 339.948 223.600,341.835 220.351,341.631 220.088 C 341.455 219.860,342.605 217.600,342.898 217.600 C 343.064 217.600,343.200 217.240,343.200 216.800 C 343.200 216.360,343.380 216.000,343.600 216.000 C 343.820 216.000,344.000 215.574,344.000 215.054 C 344.000 214.534,344.380 213.625,344.843 213.036 C 345.307 212.446,345.712 211.539,345.743 211.020 C 345.775 210.501,345.890 210.131,346.000 210.196 C 346.110 210.262,346.415 210.083,346.678 209.799 C 347.054 209.391,346.992 209.239,346.382 209.079 C 345.193 208.768,343.600 210.241,343.600 211.653 C 343.600 212.347,343.433 212.744,343.200 212.600 C 342.980 212.464,342.800 212.557,342.800 212.806 C 342.800 213.055,342.488 213.199,342.108 213.125 C 341.676 213.042,341.413 212.619,341.408 212.002 C 341.402 211.221,341.150 210.968,340.223 210.806 C 339.575 210.693,339.045 210.420,339.045 210.200 C 339.045 209.980,338.724 209.456,338.332 209.035 C 337.638 208.290,337.462 206.400,338.087 206.400 C 338.745 206.400,338.362 205.683,337.598 205.484 C 337.033 205.336,336.867 205.057,337.036 204.537 C 337.215 203.986,337.177 203.937,336.888 204.343 C 336.617 204.722,336.418 204.752,336.226 204.443 C 335.831 203.802,335.200 203.899,335.200 204.600 C 335.200 205.510,334.599 205.318,334.011 204.221 C 333.710 203.658,333.058 203.191,332.475 203.121 C 331.684 203.026,331.431 202.738,331.319 201.800 C 331.127 200.194,330.897 199.600,330.468 199.600 C 330.272 199.600,330.202 200.077,330.313 200.659 C 330.453 201.391,330.374 201.631,330.058 201.436 C 329.474 201.075,329.467 199.893,330.045 199.315 C 330.730 198.630,330.139 198.084,328.956 198.311 C 327.960 198.501,327.904 198.434,328.077 197.257 C 328.272 195.931,328.055 195.705,327.307 196.453 C 326.757 197.003,325.552 196.615,325.696 195.933 C 325.753 195.664,325.260 195.334,324.600 195.200 C 323.879 195.053,323.448 194.740,323.521 194.414 C 323.588 194.117,323.498 193.767,323.321 193.637 C 322.630 193.127,322.022 191.634,322.408 191.395 C 323.229 190.888,322.845 189.285,321.900 189.276 C 320.933 189.266,316.333 188.095,317.000 188.028 C 317.220 188.006,316.950 187.757,316.400 187.475 C 315.596 187.062,315.425 186.711,315.526 185.681 C 315.619 184.732,315.489 184.400,315.026 184.400 C 314.682 184.400,314.386 184.265,314.369 184.100 C 314.353 183.935,314.244 183.440,314.128 183.000 C 314.012 182.560,313.929 181.705,313.943 181.100 C 313.956 180.495,313.795 180.000,313.584 180.000 C 313.373 180.000,313.200 180.450,313.200 181.000 C 313.200 181.550,312.999 182.000,312.753 182.000 C 312.504 182.000,312.399 181.647,312.516 181.200 C 312.746 180.320,312.400 180.160,311.726 180.834 C 311.210 181.350,309.415 181.172,309.365 180.600 C 309.279 179.604,308.650 178.800,307.957 178.800 C 307.541 178.800,307.200 178.537,307.200 178.216 C 307.200 177.894,306.848 177.303,306.418 176.903 C 305.559 176.102,305.468 174.400,306.285 174.400 C 306.568 174.400,306.800 174.220,306.800 174.000 C 306.800 173.630,306.154 173.514,303.635 173.432 C 303.104 173.414,302.597 173.182,302.507 172.915 C 302.417 172.648,301.725 172.048,300.969 171.581 C 300.213 171.114,299.697 170.567,299.821 170.366 C 299.945 170.165,299.846 170.000,299.600 170.000 C 299.354 170.000,299.276 169.800,299.428 169.555 C 299.579 169.311,299.454 168.953,299.151 168.761 C 298.352 168.255,297.995 168.322,298.231 168.936 M295.079 172.957 C 294.915 173.374,294.875 173.809,294.991 173.924 C 295.355 174.289,295.676 173.691,295.524 172.931 C 295.383 172.235,295.362 172.236,295.079 172.957 M41.731 175.800 C 41.733 177.340,41.805 177.921,41.892 177.091 C 41.979 176.261,41.977 175.001,41.889 174.291 C 41.800 173.581,41.729 174.260,41.731 175.800 M41.740 192.800 C 41.740 194.670,41.809 195.435,41.893 194.500 C 41.977 193.565,41.977 192.035,41.893 191.100 C 41.809 190.165,41.740 190.930,41.740 192.800 M345.698 205.866 C 345.421 205.977,345.316 206.264,345.463 206.502 C 345.635 206.781,345.486 206.842,345.045 206.673 C 344.637 206.516,344.458 206.570,344.603 206.805 C 344.737 207.022,345.332 207.186,345.924 207.168 C 346.516 207.151,346.785 207.049,346.522 206.943 C 346.260 206.836,346.144 206.490,346.265 206.174 C 346.500 205.563,346.478 205.551,345.698 205.866 M347.200 207.587 C 347.200 207.801,346.930 207.871,346.600 207.745 C 346.270 207.618,346.000 207.714,346.000 207.957 C 346.000 208.454,346.430 208.517,347.367 208.157 C 348.065 207.889,348.233 207.200,347.600 207.200 C 347.380 207.200,347.200 207.374,347.200 207.587 M157.300 358.298 C 159.225 358.371,162.375 358.371,164.300 358.298 C 166.225 358.225,164.650 358.165,160.800 358.165 C 156.950 358.165,155.375 358.225,157.300 358.298 " stroke="none" fill="#049c4c" fill-rule="evenodd"></path><path id="path7" d="M163.511 48.293 C 164.451 48.378,165.891 48.377,166.711 48.291 C 167.530 48.205,166.760 48.136,165.000 48.137 C 163.240 48.139,162.570 48.209,163.511 48.293 M176.100 48.676 C 176.485 48.776,177.115 48.776,177.500 48.676 C 177.885 48.575,177.570 48.493,176.800 48.493 C 176.030 48.493,175.715 48.575,176.100 48.676 M180.100 49.076 C 180.485 49.176,181.115 49.176,181.500 49.076 C 181.885 48.975,181.570 48.893,180.800 48.893 C 180.030 48.893,179.715 48.975,180.100 49.076 M209.800 54.400 C 210.240 54.589,210.960 54.738,211.400 54.732 C 212.043 54.723,212.004 54.657,211.200 54.400 C 209.832 53.962,208.781 53.962,209.800 54.400 M215.400 56.000 C 215.840 56.189,216.470 56.344,216.800 56.344 C 217.178 56.344,217.104 56.217,216.600 56.000 C 216.160 55.811,215.530 55.656,215.200 55.656 C 214.822 55.656,214.896 55.783,215.400 56.000 M220.600 57.578 C 221.040 57.788,223.830 58.893,226.800 60.033 C 234.182 62.868,247.668 69.485,251.220 72.014 C 251.827 72.446,252.436 72.800,252.574 72.800 C 253.078 72.800,262.315 79.172,266.200 82.200 C 274.856 88.946,281.991 95.758,286.849 101.915 C 289.658 105.476,290.533 106.404,289.193 104.400 C 278.673 88.676,251.578 69.200,227.000 59.694 C 222.035 57.773,218.699 56.670,220.600 57.578 M290.595 107.048 C 292.039 109.253,294.098 112.919,294.866 114.656 C 295.307 115.652,295.753 116.380,295.859 116.274 C 296.280 115.854,290.754 106.000,290.097 106.000 C 289.993 106.000,290.217 106.472,290.595 107.048 M296.150 117.200 C 296.258 117.530,296.896 119.457,297.566 121.483 C 301.769 134.176,301.790 148.660,297.627 163.300 C 297.392 164.125,297.035 165.385,296.833 166.100 C 296.105 168.681,295.086 171.574,293.909 174.400 C 293.680 174.950,293.351 175.760,293.178 176.200 C 291.914 179.406,291.060 181.251,288.554 186.190 C 285.866 191.489,284.449 193.993,280.398 200.600 C 278.637 203.472,275.880 207.627,274.981 208.762 C 274.703 209.113,272.454 212.100,269.983 215.400 C 267.512 218.700,265.378 221.490,265.240 221.600 C 265.102 221.710,264.184 222.790,263.200 224.000 C 262.216 225.210,261.318 226.290,261.205 226.400 C 261.092 226.510,259.834 227.950,258.411 229.600 C 251.468 237.646,236.786 252.073,229.400 258.107 C 228.960 258.466,227.304 259.836,225.719 261.150 C 220.194 265.734,203.103 278.000,202.241 278.000 C 202.141 278.000,200.588 278.903,198.790 280.006 C 193.989 282.953,178.777 290.400,177.560 290.400 C 177.356 290.400,176.877 290.576,176.495 290.791 C 175.269 291.480,169.551 293.261,164.200 294.619 C 161.340 295.345,159.360 295.952,159.800 295.968 C 160.715 296.002,168.808 293.997,171.800 292.996 C 182.599 289.382,193.131 284.237,205.081 276.738 C 226.472 263.315,253.035 238.645,269.619 216.800 C 271.039 214.930,272.302 213.310,272.427 213.200 C 272.552 213.090,274.392 210.454,276.517 207.342 C 296.428 178.177,304.515 151.174,300.009 128.901 C 299.172 124.767,297.311 118.764,296.430 117.360 C 296.168 116.942,296.042 116.870,296.150 117.200 M114.400 289.216 C 122.782 294.860,137.339 298.224,149.200 297.256 C 153.339 296.919,153.292 296.913,145.967 296.857 C 139.012 296.804,137.212 296.638,131.600 295.532 C 126.711 294.569,119.856 291.907,115.082 289.120 C 112.543 287.637,112.140 287.693,114.400 289.216 M155.600 296.418 C 155.600 296.683,156.150 296.737,157.100 296.565 C 159.176 296.190,159.232 296.000,157.267 296.000 C 156.350 296.000,155.600 296.188,155.600 296.418 " stroke="none" fill="#8c6f7b" fill-rule="evenodd"></path><path id="path8" d="M170.583 42.427 C 170.438 42.661,170.563 42.810,170.860 42.758 C 171.568 42.632,173.625 43.636,173.401 43.998 C 173.196 44.330,174.874 45.294,175.422 45.159 C 175.630 45.107,176.513 45.213,177.384 45.393 C 180.694 46.078,177.024 46.464,165.200 46.676 C 150.054 46.948,148.667 47.572,163.173 47.588 C 173.404 47.599,175.854 47.740,184.800 48.830 C 191.596 49.659,203.495 51.861,208.446 53.207 C 209.999 53.629,211.892 53.717,210.800 53.317 C 208.085 52.320,206.788 51.490,206.566 50.607 C 206.431 50.069,205.933 49.513,205.460 49.372 C 204.987 49.230,204.330 48.779,204.000 48.368 C 203.670 47.957,202.680 47.375,201.800 47.075 C 200.303 46.564,200.165 46.384,199.654 44.265 L 199.108 42.000 186.580 42.000 C 179.528 42.000,173.610 42.168,173.040 42.385 C 172.392 42.631,171.943 42.631,171.791 42.385 C 171.476 41.876,170.911 41.896,170.583 42.427 M145.727 47.861 C 146.010 48.143,151.667 48.066,151.957 47.776 C 152.054 47.679,150.633 47.600,148.800 47.600 C 146.967 47.600,145.584 47.717,145.727 47.861 M141.105 48.683 C 141.602 48.779,142.322 48.775,142.705 48.675 C 143.087 48.575,142.680 48.496,141.800 48.501 C 140.920 48.505,140.607 48.587,141.105 48.683 M301.893 140.956 C 301.732 142.032,301.600 143.755,301.600 144.785 C 301.600 148.828,299.620 159.738,297.777 165.855 C 297.189 167.805,296.618 169.897,296.508 170.505 C 296.398 171.113,296.149 171.708,295.954 171.829 C 295.759 171.949,295.600 172.472,295.600 172.990 C 295.600 173.509,295.402 173.999,295.161 174.080 C 294.919 174.160,294.798 174.670,294.890 175.213 C 295.047 176.129,295.081 176.142,295.359 175.400 C 295.524 174.960,295.825 174.287,296.029 173.905 C 296.233 173.523,296.400 172.938,296.400 172.605 C 296.400 172.272,296.580 172.000,296.800 172.000 C 297.020 172.000,297.200 171.662,297.200 171.249 C 297.200 170.836,297.478 170.267,297.818 169.985 C 298.158 169.703,298.344 169.231,298.231 168.936 C 297.995 168.322,298.352 168.255,299.151 168.761 C 299.454 168.953,299.579 169.311,299.428 169.555 C 299.276 169.800,299.354 170.000,299.600 170.000 C 299.846 170.000,299.945 170.165,299.821 170.366 C 299.697 170.567,300.213 171.114,300.969 171.581 C 301.725 172.048,302.417 172.648,302.507 172.915 C 302.597 173.182,303.104 173.414,303.635 173.432 C 306.154 173.514,306.800 173.630,306.800 174.000 C 306.800 174.220,306.568 174.400,306.285 174.400 C 305.468 174.400,305.559 176.102,306.418 176.903 C 306.848 177.303,307.200 177.894,307.200 178.216 C 307.200 178.537,307.541 178.800,307.957 178.800 C 308.650 178.800,309.279 179.604,309.365 180.600 C 309.415 181.172,311.210 181.350,311.726 180.834 C 312.400 180.160,312.746 180.320,312.516 181.200 C 312.399 181.647,312.504 182.000,312.753 182.000 C 312.999 182.000,313.200 181.550,313.200 181.000 C 313.200 180.450,313.373 180.000,313.584 180.000 C 313.795 180.000,313.956 180.495,313.943 181.100 C 313.929 181.705,314.012 182.560,314.128 183.000 C 314.244 183.440,314.353 183.935,314.369 184.100 C 314.386 184.265,314.682 184.400,315.026 184.400 C 315.489 184.400,315.619 184.732,315.526 185.681 C 315.425 186.711,315.596 187.062,316.400 187.475 C 316.950 187.757,317.220 188.006,317.000 188.028 C 316.333 188.095,320.933 189.266,321.900 189.276 C 322.845 189.285,323.229 190.888,322.408 191.395 C 322.022 191.634,322.630 193.127,323.321 193.637 C 323.498 193.767,323.588 194.117,323.521 194.414 C 323.448 194.740,323.879 195.053,324.600 195.200 C 325.260 195.334,325.753 195.664,325.696 195.933 C 325.552 196.615,326.757 197.003,327.307 196.453 C 328.055 195.705,328.272 195.931,328.077 197.257 C 327.904 198.434,327.960 198.501,328.956 198.311 C 330.139 198.084,330.730 198.630,330.045 199.315 C 329.467 199.893,329.474 201.075,330.058 201.436 C 330.374 201.631,330.453 201.391,330.313 200.659 C 330.202 200.077,330.272 199.600,330.468 199.600 C 330.897 199.600,331.127 200.194,331.319 201.800 C 331.431 202.738,331.684 203.026,332.475 203.121 C 333.058 203.191,333.710 203.658,334.011 204.221 C 334.599 205.318,335.200 205.510,335.200 204.600 C 335.200 203.772,335.740 203.849,336.600 204.800 C 336.998 205.240,337.566 205.600,337.862 205.600 C 338.158 205.600,338.400 205.780,338.400 206.000 C 338.400 206.220,338.259 206.400,338.087 206.400 C 337.426 206.400,337.658 208.311,338.418 209.127 C 338.857 209.599,339.168 210.121,339.108 210.288 C 339.049 210.455,339.540 210.686,340.200 210.802 C 341.151 210.968,341.402 211.217,341.408 212.002 C 341.413 212.619,341.676 213.042,342.108 213.125 C 342.488 213.199,342.800 213.055,342.800 212.806 C 342.800 212.557,342.980 212.464,343.200 212.600 C 343.433 212.744,343.600 212.347,343.600 211.653 C 343.600 210.225,345.192 208.768,346.405 209.085 C 346.848 209.201,347.200 209.095,347.200 208.847 C 347.200 208.601,346.930 208.400,346.600 208.400 C 346.270 208.400,346.000 208.205,346.000 207.967 C 346.000 207.728,346.223 207.608,346.496 207.699 C 347.125 207.908,348.000 207.053,348.000 206.229 C 348.000 205.883,348.180 205.600,348.400 205.600 C 348.620 205.600,348.803 205.105,348.806 204.500 C 348.811 203.643,348.898 203.532,349.200 204.000 C 349.503 204.469,349.589 204.366,349.594 203.524 C 349.597 202.932,349.780 202.336,350.000 202.200 C 350.220 202.064,350.400 201.503,350.400 200.953 C 350.400 200.403,350.542 200.040,350.715 200.148 C 350.888 200.255,351.070 199.860,351.119 199.271 C 351.167 198.682,351.385 198.140,351.603 198.067 C 352.213 197.862,352.073 196.803,351.402 196.546 C 351.074 196.419,350.896 196.167,351.009 195.986 C 351.121 195.804,351.030 195.542,350.807 195.404 C 350.583 195.266,350.400 194.791,350.400 194.348 C 350.400 193.905,350.128 193.271,349.796 192.939 C 349.464 192.607,349.295 192.170,349.420 191.968 C 349.545 191.765,349.142 191.573,348.524 191.539 C 347.906 191.506,347.220 191.436,347.000 191.385 C 346.780 191.334,346.375 191.272,346.100 191.246 C 345.825 191.221,345.600 190.930,345.600 190.601 C 345.600 190.272,345.048 188.834,344.373 187.406 C 343.699 185.978,343.256 184.633,343.390 184.417 C 343.644 184.005,343.403 183.937,339.232 183.248 C 336.314 182.765,336.005 182.560,335.838 180.988 C 335.766 180.321,335.243 179.478,334.559 178.931 C 333.802 178.326,333.608 177.992,334.000 177.970 C 334.330 177.952,334.105 177.756,333.500 177.535 C 332.895 177.314,332.400 176.898,332.400 176.610 C 332.400 176.080,329.694 174.800,328.574 174.800 C 328.239 174.800,328.001 174.575,328.046 174.300 C 328.090 174.025,328.006 173.530,327.860 173.200 C 327.714 172.870,327.460 171.521,327.295 170.201 L 326.997 167.803 324.599 167.511 C 321.389 167.120,320.463 166.648,319.802 165.067 C 319.496 164.335,318.968 163.505,318.628 163.223 C 318.287 162.940,318.095 162.569,318.201 162.398 C 318.307 162.227,317.900 161.772,317.297 161.386 C 316.693 161.000,315.878 160.351,315.484 159.942 C 315.091 159.534,314.444 159.200,314.046 159.200 C 312.750 159.200,311.885 157.708,311.434 154.697 L 311.000 151.803 308.600 151.506 C 305.619 151.137,304.018 150.500,303.939 149.651 C 303.906 149.293,303.858 148.799,303.833 148.554 C 303.808 148.309,303.545 147.816,303.249 147.459 C 302.928 147.072,302.603 145.229,302.447 142.904 C 302.203 139.273,302.165 139.137,301.893 140.956 M358.128 160.800 C 358.128 162.230,358.201 162.815,358.289 162.100 C 358.378 161.385,358.378 160.215,358.289 159.500 C 358.201 158.785,358.128 159.370,358.128 160.800 M294.000 176.800 C 294.000 177.547,294.107 177.653,294.480 177.280 C 294.853 176.907,294.853 176.693,294.480 176.320 C 294.107 175.947,294.000 176.053,294.000 176.800 M293.200 178.824 C 293.200 179.277,293.380 179.536,293.600 179.400 C 293.820 179.264,294.000 178.893,294.000 178.576 C 294.000 178.259,293.820 178.000,293.600 178.000 C 293.380 178.000,293.200 178.371,293.200 178.824 M292.400 180.400 C 292.400 181.147,292.507 181.253,292.880 180.880 C 293.253 180.507,293.253 180.293,292.880 179.920 C 292.507 179.547,292.400 179.653,292.400 180.400 M291.600 182.400 C 291.600 182.840,291.420 183.200,291.200 183.200 C 290.980 183.200,290.804 183.515,290.809 183.900 C 290.816 184.467,290.966 184.410,291.600 183.600 C 292.451 182.512,292.634 181.600,292.000 181.600 C 291.780 181.600,291.600 181.960,291.600 182.400 M346.265 206.174 C 346.144 206.490,346.260 206.836,346.522 206.943 C 346.785 207.049,346.516 207.151,345.924 207.168 C 345.332 207.186,344.737 207.022,344.603 206.805 C 344.458 206.570,344.637 206.516,345.045 206.673 C 345.486 206.842,345.635 206.781,345.463 206.502 C 345.316 206.264,345.421 205.977,345.698 205.866 C 346.478 205.551,346.500 205.563,346.265 206.174 " stroke="none" fill="#04b444" fill-rule="evenodd"></path></g></svg>